<svg width="24" height="24" viewBox="0 0 24 24" fill="none" xmlns="http://www.w3.org/2000/svg">
<path d="M16.61 15.15C16.15 15.15 15.77 14.78 15.77 14.32C15.77 13.86 16.15 13.5 16.61 13.5C17.07 13.5 17.45 13.86 17.45 14.32C17.45 14.78 17.07 15.15 16.61 15.15ZM7.41 15.15C6.95 15.15 6.57 14.78 6.57 14.32C6.57 13.86 6.95 13.5 7.41 13.5C7.87 13.5 8.24 13.86 8.24 14.32C8.24 14.78 7.87 15.15 7.41 15.15ZM16.91 10.14L18.58 7.25995C18.67 7.08995 18.61 6.87995 18.45 6.78995C18.28 6.68995 18.07 6.74995 18 6.91995L16.29 9.82995C14.9442 9.21418 13.48 8.90018 12 8.90995C10.47 8.90995 9 9.23995 7.73 9.81995L6.04 6.90995C6.01878 6.86946 5.98948 6.83375 5.95391 6.80504C5.91833 6.77633 5.87725 6.75523 5.83319 6.74304C5.78913 6.73086 5.74304 6.72784 5.69776 6.73419C5.65249 6.74054 5.60901 6.75612 5.57 6.77995C5.4 6.86995 5.35 7.07995 5.44 7.24995L7.1 10.13C4.25 11.69 2.29 14.58 2 18H22C21.72 14.59 19.77 11.7 16.91 10.14Z" fill="white"/>
</svg>
