<svg width="217" height="64" viewBox="0 0 217 64" fill="none" xmlns="http://www.w3.org/2000/svg">
<path d="M208.666 64H7.97063C3.80055 64 0.40625 60.5952 0.40625 56.4272V7.5616C0.40625 3.392 3.80055 0 7.97063 0H208.666C212.834 0 216.349 3.392 216.349 7.5616V56.4272C216.349 60.5952 212.834 64 208.666 64Z" fill="#A6A6A6"/>
<path d="M214.801 56.4288C214.801 59.8144 212.059 62.5568 208.668 62.5568H7.97084C4.58135 62.5568 1.83008 59.8144 1.83008 56.4288V7.55995C1.83008 4.17595 4.58135 1.42395 7.97084 1.42395H208.666C212.059 1.42395 214.799 4.17595 214.799 7.55995L214.801 56.4288Z" fill="black"/>
<path d="M48.5976 31.6544C48.5512 26.4976 52.8188 23.9888 53.014 23.872C50.597 20.3472 46.8508 19.8656 45.5344 19.8272C42.388 19.496 39.336 21.7104 37.7332 21.7104C36.0985 21.7104 33.6303 19.8592 30.9703 19.9136C27.5472 19.9664 24.3448 21.9488 22.5885 25.0272C18.9638 31.304 21.6671 40.528 25.1398 45.6016C26.8769 48.0864 28.9068 50.8608 31.5637 50.7632C34.163 50.656 35.1339 49.1056 38.2707 49.1056C41.3787 49.1056 42.2904 50.7632 45.0001 50.7008C47.7898 50.656 49.5461 48.2048 51.2225 45.6976C53.2299 42.8496 54.0361 40.0448 54.0681 39.9008C54.0025 39.8784 48.6503 37.8352 48.5976 31.6544Z" fill="white"/>
<path d="M43.4782 16.4897C44.8762 14.7409 45.8327 12.3617 45.5672 9.94727C43.5437 10.0369 41.0132 11.3473 39.556 13.0577C38.2667 14.5649 37.1151 17.0353 37.4126 19.3585C39.6856 19.5281 42.0193 18.2113 43.4782 16.4897Z" fill="white"/>
<path d="M86.2154 50.4064H82.5827L80.5929 44.152H73.6763L71.7808 50.4064H68.2441L75.0967 29.1136H79.3292L86.2154 50.4064ZM79.993 41.528L78.1935 35.968C78.0031 35.4 77.6464 34.0624 77.1202 31.9568H77.0562C76.8466 32.8624 76.5091 34.2 76.0453 35.968L74.2777 41.528H79.993Z" fill="white"/>
<path d="M103.838 42.5409C103.838 45.1521 103.133 47.2161 101.722 48.7313C100.458 50.0801 98.8892 50.7537 97.0161 50.7537C94.9943 50.7537 93.5418 50.0273 92.6573 48.5745H92.5933V56.6625H89.183V40.1073C89.183 38.4657 89.1398 36.7809 89.0566 35.0529H92.0558L92.2462 37.4865H92.3102C93.4475 35.6529 95.1734 34.7377 97.4896 34.7377C99.3003 34.7377 100.812 35.4529 102.021 36.8849C103.234 38.3185 103.838 40.2033 103.838 42.5409ZM100.364 42.6657C100.364 41.1713 100.028 39.9393 99.3531 38.9697C98.6157 37.9585 97.6256 37.4529 96.3843 37.4529C95.5429 37.4529 94.7783 37.7345 94.0953 38.2897C93.4107 38.8497 92.9628 39.5809 92.7533 40.4865C92.6477 40.9089 92.5949 41.2545 92.5949 41.5265V44.0865C92.5949 45.2033 92.9372 46.1457 93.6218 46.9153C94.3064 47.6849 95.1958 48.0689 96.2899 48.0689C97.5744 48.0689 98.5741 47.5729 99.2891 46.5841C100.006 45.5937 100.364 44.2881 100.364 42.6657Z" fill="white"/>
<path d="M121.493 42.5409C121.493 45.1521 120.788 47.2161 119.375 48.7313C118.113 50.0801 116.544 50.7537 114.671 50.7537C112.649 50.7537 111.196 50.0273 110.314 48.5745H110.25V56.6625H106.839V40.1073C106.839 38.4657 106.796 36.7809 106.713 35.0529H109.712L109.902 37.4865H109.966C111.102 35.6529 112.828 34.7377 115.146 34.7377C116.955 34.7377 118.467 35.4529 119.679 36.8849C120.887 38.3185 121.493 40.2033 121.493 42.5409ZM118.019 42.6657C118.019 41.1713 117.681 39.9393 117.006 38.9697C116.269 37.9585 115.282 37.4529 114.039 37.4529C113.196 37.4529 112.433 37.7345 111.748 38.2897C111.064 38.8497 110.617 39.5809 110.408 40.4865C110.304 40.9089 110.25 41.2545 110.25 41.5265V44.0865C110.25 45.2033 110.592 46.1457 111.273 46.9153C111.958 47.6833 112.847 48.0689 113.945 48.0689C115.229 48.0689 116.229 47.5729 116.944 46.5841C117.66 45.5937 118.019 44.2881 118.019 42.6657Z" fill="white"/>
<path d="M141.231 44.4352C141.231 46.2464 140.603 47.72 139.341 48.8576C137.954 50.1008 136.023 50.7216 133.542 50.7216C131.252 50.7216 129.415 50.28 128.025 49.3952L128.816 46.552C130.313 47.4576 131.956 47.912 133.745 47.912C135.03 47.912 136.03 47.6208 136.748 47.0416C137.463 46.4624 137.82 45.6848 137.82 44.7152C137.82 43.8512 137.525 43.1232 136.935 42.5328C136.348 41.9424 135.367 41.3936 133.998 40.8864C130.271 39.496 128.409 37.4592 128.409 34.7808C128.409 33.0304 129.062 31.5952 130.369 30.4784C131.671 29.36 133.408 28.8016 135.58 28.8016C137.517 28.8016 139.126 29.1392 140.411 29.8128L139.558 32.5936C138.359 31.9408 137.002 31.6144 135.484 31.6144C134.285 31.6144 133.347 31.9104 132.675 32.4992C132.108 33.0256 131.823 33.6672 131.823 34.4272C131.823 35.2688 132.147 35.9648 132.8 36.512C133.368 37.0176 134.4 37.5648 135.897 38.1552C137.728 38.8928 139.074 39.7552 139.939 40.744C140.801 41.7296 141.231 42.9632 141.231 44.4352Z" fill="white"/>
<path d="M152.506 37.6129H148.747V45.0673C148.747 46.9633 149.409 47.9105 150.737 47.9105C151.346 47.9105 151.852 47.8577 152.252 47.7521L152.346 50.3425C151.674 50.5937 150.79 50.7201 149.694 50.7201C148.347 50.7201 147.295 50.3089 146.535 49.4881C145.778 48.6657 145.398 47.2865 145.398 45.3489V37.6097H143.158V35.0497H145.398V32.2385L148.747 31.2273V35.0497H152.506V37.6129Z" fill="white"/>
<path d="M169.466 42.6033C169.466 44.9633 168.791 46.9009 167.444 48.4161C166.032 49.9761 164.157 50.7537 161.82 50.7537C159.568 50.7537 157.775 50.0065 156.438 48.5121C155.1 47.0177 154.432 45.1313 154.432 42.8577C154.432 40.4785 155.119 38.5297 156.5 37.0145C157.877 35.4977 159.736 34.7393 162.073 34.7393C164.325 34.7393 166.137 35.4865 167.505 36.9825C168.813 38.4337 169.466 40.3073 169.466 42.6033ZM165.928 42.7137C165.928 41.2977 165.625 40.0833 165.013 39.0705C164.298 37.8449 163.276 37.2337 161.951 37.2337C160.58 37.2337 159.539 37.8465 158.824 39.0705C158.211 40.0849 157.909 41.3185 157.909 42.7777C157.909 44.1937 158.211 45.4081 158.824 46.4193C159.561 47.6449 160.592 48.2561 161.921 48.2561C163.223 48.2561 164.245 47.6321 164.982 46.3873C165.611 45.3553 165.928 44.1281 165.928 42.7137Z" fill="white"/>
<path d="M180.552 38.0529C180.215 37.9905 179.855 37.9585 179.477 37.9585C178.277 37.9585 177.35 38.4113 176.697 39.3185C176.129 40.1185 175.844 41.1297 175.844 42.3505V50.4065H172.436L172.468 39.8881C172.468 38.1185 172.425 36.5073 172.34 35.0545H175.31L175.435 37.9921H175.529C175.889 36.9825 176.457 36.1697 177.235 35.5601C177.994 35.0113 178.815 34.7377 179.699 34.7377C180.015 34.7377 180.299 34.7601 180.552 34.8001V38.0529Z" fill="white"/>
<path d="M195.803 42.0033C195.803 42.6145 195.763 43.1297 195.679 43.5505H185.448C185.488 45.0673 185.982 46.2273 186.932 47.0273C187.794 47.7425 188.909 48.1009 190.278 48.1009C191.793 48.1009 193.175 47.8593 194.418 47.3745L194.952 49.7425C193.5 50.3761 191.785 50.6913 189.806 50.6913C187.426 50.6913 185.558 49.9905 184.198 48.5905C182.842 47.1905 182.162 45.3105 182.162 42.9521C182.162 40.6369 182.794 38.7089 184.059 37.1713C185.384 35.5297 187.174 34.7089 189.426 34.7089C191.638 34.7089 193.313 35.5297 194.45 37.1713C195.351 38.4753 195.803 40.0881 195.803 42.0033ZM192.551 41.1185C192.574 40.1073 192.351 39.2337 191.889 38.4961C191.299 37.5473 190.392 37.0737 189.171 37.0737C188.057 37.0737 187.15 37.5361 186.457 38.4641C185.889 39.2017 185.552 40.0865 185.448 41.1169H192.551V41.1185Z" fill="white"/>
<path d="M78.8657 16.0144C78.8657 17.8976 78.301 19.3152 77.1733 20.2672C76.1288 21.1456 74.6444 21.5856 72.7217 21.5856C71.7683 21.5856 70.9525 21.544 70.2695 21.4608V11.1712C71.1605 11.0272 72.1202 10.9536 73.1568 10.9536C74.9883 10.9536 76.3687 11.352 77.2997 12.1488C78.3426 13.0496 78.8657 14.3376 78.8657 16.0144ZM77.0981 16.0608C77.0981 14.84 76.775 13.904 76.1288 13.2512C75.4826 12.6 74.5388 12.2736 73.2959 12.2736C72.7681 12.2736 72.3186 12.3088 71.9459 12.3824V20.2048C72.1522 20.2368 72.5297 20.2512 73.0784 20.2512C74.3612 20.2512 75.3514 19.8944 76.0488 19.1808C76.7462 18.4672 77.0981 17.4272 77.0981 16.0608Z" fill="white"/>
<path d="M88.2368 17.6593C88.2368 18.8193 87.9057 19.7697 87.2435 20.5153C86.5492 21.2817 85.6295 21.6641 84.481 21.6641C83.3741 21.6641 82.4927 21.2977 81.8353 20.5617C81.1795 19.8273 80.8516 18.9009 80.8516 17.7841C80.8516 16.6161 81.1891 15.6577 81.8673 14.9137C82.5455 14.1697 83.4573 13.7969 84.6058 13.7969C85.7127 13.7969 86.602 14.1633 87.2755 14.8977C87.9153 15.6113 88.2368 16.5329 88.2368 17.6593ZM86.4981 17.7137C86.4981 17.0177 86.3477 16.4209 86.0486 15.9233C85.6967 15.3217 85.196 15.0209 84.545 15.0209C83.8716 15.0209 83.3597 15.3217 83.0078 15.9233C82.7071 16.4209 82.5583 17.0273 82.5583 17.7441C82.5583 18.4401 82.7087 19.0369 83.0078 19.5345C83.3709 20.1361 83.8764 20.4369 84.529 20.4369C85.1688 20.4369 85.6711 20.1313 86.0326 19.5185C86.3429 19.0113 86.4981 18.4097 86.4981 17.7137Z" fill="white"/>
<path d="M100.804 13.9504L98.4446 21.4928H96.909L95.9317 18.2176C95.6838 17.4 95.4822 16.5872 95.3255 15.7808H95.2951C95.1495 16.6096 94.948 17.4208 94.6888 18.2176L93.6507 21.4928H92.0975L89.8789 13.9504H91.6016L92.4542 17.536C92.6606 18.384 92.8301 19.192 92.9661 19.9568H92.9965C93.1212 19.3264 93.3276 18.5232 93.6187 17.552L94.6888 13.952H96.0549L97.0802 17.4752C97.3281 18.3344 97.5297 19.1616 97.6848 19.9584H97.7312C97.8448 19.1824 98.0159 18.3552 98.2431 17.4752L99.158 13.952H100.804V13.9504Z" fill="white"/>
<path d="M109.494 21.4928H107.818V17.1728C107.818 15.8416 107.312 15.176 106.298 15.176C105.801 15.176 105.399 15.3584 105.087 15.7248C104.779 16.0912 104.622 16.5232 104.622 17.0176V21.4912H102.946V16.1056C102.946 15.4432 102.925 14.7248 102.885 13.9472H104.358L104.436 15.1264H104.483C104.678 14.76 104.969 14.4576 105.351 14.216C105.806 13.9344 106.314 13.792 106.871 13.792C107.575 13.792 108.16 14.0192 108.626 14.4752C109.205 15.0336 109.494 15.8672 109.494 16.9744V21.4928Z" fill="white"/>
<path d="M114.116 21.4928H112.441V10.4896H114.116V21.4928Z" fill="white"/>
<path d="M123.987 17.6593C123.987 18.8193 123.656 19.7697 122.993 20.5153C122.299 21.2817 121.378 21.6641 120.231 21.6641C119.122 21.6641 118.241 21.2977 117.585 20.5617C116.929 19.8273 116.602 18.9009 116.602 17.7841C116.602 16.6161 116.939 15.6577 117.617 14.9137C118.296 14.1697 119.207 13.7969 120.354 13.7969C121.463 13.7969 122.35 14.1633 123.025 14.8977C123.665 15.6113 123.987 16.5329 123.987 17.6593ZM122.246 17.7137C122.246 17.0177 122.096 16.4209 121.797 15.9233C121.447 15.3217 120.944 15.0209 120.295 15.0209C119.62 15.0209 119.108 15.3217 118.758 15.9233C118.457 16.4209 118.308 17.0273 118.308 17.7441C118.308 18.4401 118.459 19.0369 118.758 19.5345C119.121 20.1361 119.626 20.4369 120.279 20.4369C120.919 20.4369 121.419 20.1313 121.781 19.5185C122.093 19.0113 122.246 18.4097 122.246 17.7137Z" fill="white"/>
<path d="M132.099 21.4929H130.593L130.469 20.6241H130.422C129.907 21.3169 129.173 21.6641 128.22 21.6641C127.508 21.6641 126.932 21.4353 126.498 20.9809C126.105 20.5681 125.908 20.0545 125.908 19.4449C125.908 18.5233 126.292 17.8209 127.065 17.3345C127.836 16.8481 128.92 16.6097 130.317 16.6209V16.4801C130.317 15.4865 129.795 14.9905 128.751 14.9905C128.007 14.9905 127.351 15.1777 126.785 15.5489L126.444 14.4481C127.145 14.0145 128.01 13.7969 129.031 13.7969C131.001 13.7969 131.99 14.8369 131.99 16.9169V19.6945C131.99 20.4481 132.027 21.0481 132.099 21.4929ZM130.358 18.9009V17.7377C128.509 17.7057 127.585 18.2129 127.585 19.2577C127.585 19.6513 127.69 19.9457 127.906 20.1425C128.122 20.3393 128.397 20.4369 128.725 20.4369C129.093 20.4369 129.437 20.3201 129.75 20.0881C130.065 19.8545 130.259 19.5585 130.331 19.1953C130.349 19.1137 130.358 19.0145 130.358 18.9009Z" fill="white"/>
<path d="M141.626 21.4928H140.138L140.06 20.2816H140.013C139.538 21.2032 138.729 21.664 137.592 21.664C136.683 21.664 135.927 21.3072 135.327 20.5936C134.727 19.88 134.428 18.9536 134.428 17.816C134.428 16.5952 134.752 15.6064 135.405 14.8512C136.037 14.1472 136.811 13.7952 137.732 13.7952C138.745 13.7952 139.454 14.136 139.857 14.8192H139.889V10.4896H141.567V19.4608C141.567 20.1952 141.586 20.872 141.626 21.4928ZM139.889 18.312V17.0544C139.889 16.8368 139.873 16.6608 139.842 16.5264C139.748 16.1232 139.545 15.784 139.236 15.5104C138.924 15.2368 138.548 15.0992 138.115 15.0992C137.489 15.0992 137 15.3472 136.64 15.8448C136.283 16.3424 136.102 16.9776 136.102 17.7536C136.102 18.4992 136.274 19.104 136.618 19.5696C136.981 20.0656 137.47 20.3136 138.083 20.3136C138.633 20.3136 139.073 20.1072 139.407 19.6928C139.73 19.3104 139.889 18.8496 139.889 18.312Z" fill="white"/>
<path d="M155.961 17.6593C155.961 18.8193 155.63 19.7697 154.968 20.5153C154.274 21.2817 153.356 21.6641 152.206 21.6641C151.1 21.6641 150.219 21.2977 149.56 20.5617C148.904 19.8273 148.576 18.9009 148.576 17.7841C148.576 16.6161 148.914 15.6577 149.592 14.9137C150.27 14.1697 151.182 13.7969 152.332 13.7969C153.437 13.7969 154.328 14.1633 155 14.8977C155.64 15.6113 155.961 16.5329 155.961 17.6593ZM154.224 17.7137C154.224 17.0177 154.074 16.4209 153.775 15.9233C153.421 15.3217 152.922 15.0209 152.27 15.0209C151.598 15.0209 151.086 15.3217 150.732 15.9233C150.432 16.4209 150.283 17.0273 150.283 17.7441C150.283 18.4401 150.433 19.0369 150.732 19.5345C151.095 20.1361 151.601 20.4369 152.254 20.4369C152.893 20.4369 153.397 20.1313 153.759 19.5185C154.068 19.0113 154.224 18.4097 154.224 17.7137Z" fill="white"/>
<path d="M164.975 21.4928H163.3V17.1728C163.3 15.8416 162.795 15.176 161.779 15.176C161.282 15.176 160.88 15.3584 160.57 15.7248C160.259 16.0912 160.104 16.5232 160.104 17.0176V21.4912H158.426V16.1056C158.426 15.4432 158.407 14.7248 158.367 13.9472H159.839L159.917 15.1264H159.964C160.16 14.76 160.451 14.4576 160.832 14.216C161.288 13.9344 161.795 13.792 162.353 13.792C163.056 13.792 163.641 14.0192 164.106 14.4752C164.687 15.0336 164.975 15.8672 164.975 16.9744V21.4928Z" fill="white"/>
<path d="M176.256 15.2064H174.411V18.8704C174.411 19.8016 174.738 20.2672 175.388 20.2672C175.689 20.2672 175.938 20.2416 176.135 20.1888L176.178 21.4608C175.847 21.5856 175.412 21.648 174.876 21.648C174.214 21.648 173.699 21.4464 173.326 21.0432C172.952 20.64 172.766 19.9616 172.766 19.0096V15.2064H171.664V13.9504H172.766V12.568L174.409 12.072V13.9488H176.255V15.2064H176.256Z" fill="white"/>
<path d="M185.133 21.4928H183.455V17.2048C183.455 15.8528 182.949 15.176 181.937 15.176C181.159 15.176 180.628 15.568 180.337 16.352C180.288 16.5168 180.259 16.7184 180.259 16.9552V21.4912H178.584V10.4896H180.259V15.0352H180.291C180.819 14.208 181.575 13.7952 182.556 13.7952C183.25 13.7952 183.824 14.0224 184.28 14.4784C184.848 15.0464 185.133 15.8912 185.133 17.008V21.4928Z" fill="white"/>
<path d="M194.286 17.3649C194.286 17.6657 194.263 17.9185 194.223 18.1249H189.196C189.218 18.8705 189.458 19.4385 189.924 19.8321C190.349 20.1841 190.898 20.3601 191.57 20.3601C192.314 20.3601 192.992 20.2417 193.603 20.0033L193.865 21.1681C193.15 21.4785 192.309 21.6337 191.335 21.6337C190.167 21.6337 189.247 21.2897 188.582 20.6017C187.913 19.9137 187.582 18.9905 187.582 17.8321C187.582 16.6945 187.891 15.7473 188.513 14.9921C189.162 14.1857 190.041 13.7825 191.149 13.7825C192.234 13.7825 193.057 14.1857 193.614 14.9921C194.064 15.6321 194.286 16.4241 194.286 17.3649ZM192.686 16.9313C192.699 16.4337 192.589 16.0049 192.362 15.6433C192.07 15.1777 191.627 14.9441 191.028 14.9441C190.48 14.9441 190.034 15.1713 189.693 15.6273C189.415 15.9905 189.25 16.4241 189.196 16.9313H192.686Z" fill="white"/>
</svg>
