<svg width="56" height="56" viewBox="0 0 56 56" fill="none" xmlns="http://www.w3.org/2000/svg">
<g opacity="0.96">
<path d="M0 8C0 3.58172 3.58172 0 8 0H48C52.4183 0 56 3.58172 56 8V48C56 52.4183 52.4183 56 48 56H8C3.58172 56 0 52.4183 0 48V8Z" fill="#6200EA"/>
<path d="M33.0481 35.7955H22.2788V20.2045H33.0481V35.7955ZM33.0481 15.75H22.2788C21.0835 15.75 20.125 16.7411 20.125 17.9773V38.0227C20.125 38.6134 20.3519 39.18 20.7558 39.5976C21.1598 40.0153 21.7076 40.25 22.2788 40.25H33.0481C33.6193 40.25 34.1671 40.0153 34.5711 39.5976C34.975 39.18 35.2019 38.6134 35.2019 38.0227V17.9773C35.2019 17.3866 34.975 16.82 34.5711 16.4024C34.1671 15.9847 33.6193 15.75 33.0481 15.75Z" fill="white"/>
</g>
</svg>
