<svg width="255" height="80" viewBox="0 0 255 80" fill="none" xmlns="http://www.w3.org/2000/svg">
<path d="M24.4924 23.2665L5.52741 25.3333C5.23307 25.3329 4.94509 25.2483 4.69802 25.0897C4.45096 24.931 4.25532 24.7051 4.13458 24.4389C4.01384 24.1727 3.97314 23.8776 4.01735 23.5891C4.06156 23.3005 4.18882 23.0308 4.38384 22.8122C7.86695 18.8799 15.1342 10.3333 21.8747 10.3333C23.2699 10.3329 24.6364 10.7262 25.8147 11.4672C29.9804 14.0643 28.6877 18.7267 27.4931 21.3277C27.2304 21.9002 26.8086 22.3866 26.2772 22.73C25.7457 23.0734 25.1266 23.2595 24.4924 23.2665Z" fill="#FF9800"/>
<path d="M21.8744 8.66436C14.6866 8.66436 7.57022 16.4744 3.57417 21.0001C3.39343 20.7225 3.31048 20.3934 3.33826 20.0642C3.36605 19.7349 3.50302 19.4241 3.72776 19.1802C7.21858 15.2358 14.5087 6.66675 21.2627 6.66675C22.6638 6.66516 24.0364 7.0596 25.2197 7.80385C26.3126 8.46056 27.1688 9.44249 27.6663 10.6099C27.4389 10.4273 27.2004 10.2586 26.9523 10.1048C25.4321 9.16017 23.6737 8.66084 21.8797 8.66436" fill="#FF9800"/>
<path d="M60.4924 23.2665L41.5274 25.3333C41.2331 25.3329 40.9451 25.2483 40.698 25.0897C40.451 24.931 40.2553 24.7051 40.1346 24.4389C40.0138 24.1727 39.9731 23.8776 40.0174 23.5891C40.0616 23.3005 40.1888 23.0308 40.3838 22.8122C43.867 18.8799 51.1342 10.3333 57.8747 10.3333C59.2699 10.3329 60.6364 10.7262 61.8147 11.4672C65.9804 14.0643 64.6877 18.7267 63.4931 21.3277C63.2304 21.9002 62.8086 22.3866 62.2772 22.73C61.7457 23.0734 61.1266 23.2595 60.4924 23.2665Z" fill="#FF9800"/>
<path d="M57.8744 8.66436C50.6866 8.66436 43.5702 16.4744 39.5742 21.0001C39.3934 20.7225 39.3105 20.3934 39.3383 20.0642C39.3661 19.7349 39.503 19.4241 39.7278 19.1802C43.2186 15.2358 50.5087 6.66675 57.2627 6.66675C58.6638 6.66516 60.0364 7.0596 61.2197 7.80385C62.3126 8.46056 63.1688 9.44249 63.6663 10.6099C63.4389 10.4273 63.2004 10.2586 62.9523 10.1048C61.4321 9.16017 59.6737 8.66084 57.8797 8.66436" fill="#FF9800"/>
<path d="M96.4924 23.2665L77.5274 25.3333C77.2331 25.3329 76.9451 25.2483 76.698 25.0897C76.451 24.931 76.2553 24.7051 76.1346 24.4389C76.0138 24.1727 75.9731 23.8776 76.0174 23.5891C76.0616 23.3005 76.1888 23.0308 76.3838 22.8122C79.867 18.8799 87.1342 10.3333 93.8747 10.3333C95.2699 10.3329 96.6364 10.7262 97.8147 11.4672C101.98 14.0643 100.688 18.7267 99.4931 21.3277C99.2304 21.9002 98.8086 22.3866 98.2772 22.73C97.7457 23.0734 97.1266 23.2595 96.4924 23.2665Z" fill="#FF9800"/>
<path d="M93.8744 8.66436C86.6866 8.66436 79.5702 16.4744 75.5742 21.0001C75.3934 20.7225 75.3105 20.3934 75.3383 20.0642C75.3661 19.7349 75.503 19.4241 75.7278 19.1802C79.2186 15.2358 86.5087 6.66675 93.2627 6.66675C94.6638 6.66516 96.0364 7.0596 97.2197 7.80385C98.3126 8.46056 99.1688 9.44249 99.6663 10.6099C99.4389 10.4273 99.2004 10.2586 98.9523 10.1048C97.4321 9.16017 95.6737 8.66084 93.8797 8.66436" fill="#FF9800"/>
<path d="M132.492 23.2665L113.527 25.3333C113.233 25.3329 112.945 25.2483 112.698 25.0897C112.451 24.931 112.255 24.7051 112.135 24.4389C112.014 24.1727 111.973 23.8776 112.017 23.5891C112.062 23.3005 112.189 23.0308 112.384 22.8122C115.867 18.8799 123.134 10.3333 129.875 10.3333C131.27 10.3329 132.636 10.7262 133.815 11.4672C137.98 14.0643 136.688 18.7267 135.493 21.3277C135.23 21.9002 134.809 22.3866 134.277 22.73C133.746 23.0734 133.127 23.2595 132.492 23.2665Z" fill="#FF9800"/>
<path d="M129.874 8.66436C122.687 8.66436 115.57 16.4744 111.574 21.0001C111.393 20.7225 111.31 20.3934 111.338 20.0642C111.366 19.7349 111.503 19.4241 111.728 19.1802C115.219 15.2358 122.509 6.66675 129.263 6.66675C130.664 6.66516 132.036 7.0596 133.22 7.80385C134.313 8.46056 135.169 9.44249 135.666 10.6099C135.439 10.4273 135.2 10.2586 134.952 10.1048C133.432 9.16017 131.674 8.66084 129.88 8.66436" fill="#FF9800"/>
<path d="M168.492 23.2665L149.527 25.3333C149.233 25.3329 148.945 25.2483 148.698 25.0897C148.451 24.931 148.255 24.7051 148.135 24.4389C148.014 24.1727 147.973 23.8776 148.017 23.5891C148.062 23.3005 148.189 23.0308 148.384 22.8122C151.867 18.8799 159.134 10.3333 165.875 10.3333C167.27 10.3329 168.636 10.7262 169.815 11.4672C173.98 14.0643 172.688 18.7267 171.493 21.3277C171.23 21.9002 170.809 22.3866 170.277 22.73C169.746 23.0734 169.127 23.2595 168.492 23.2665Z" fill="#FF9800"/>
<path d="M165.874 8.66436C158.687 8.66436 151.57 16.4744 147.574 21.0001C147.393 20.7225 147.31 20.3934 147.338 20.0642C147.366 19.7349 147.503 19.4241 147.728 19.1802C151.219 15.2358 158.509 6.66675 165.263 6.66675C166.664 6.66516 168.036 7.0596 169.22 7.80385C170.313 8.46056 171.169 9.44249 171.666 10.6099C171.439 10.4273 171.2 10.2586 170.952 10.1048C169.432 9.16017 167.674 8.66084 165.88 8.66436" fill="#FF9800"/>
<path d="M0.792614 50.6094V48.9091H10.924V50.6094H6.83949V62H4.87074V50.6094H0.792614ZM14.5307 62.2173C13.9086 62.2173 13.3461 62.1023 12.8432 61.8722C12.3404 61.6378 11.9419 61.299 11.6479 60.8558C11.3581 60.4126 11.2132 59.8693 11.2132 59.2259C11.2132 58.6719 11.3198 58.2159 11.5328 57.858C11.7459 57.5 12.0336 57.2166 12.3958 57.0078C12.758 56.799 13.1628 56.6413 13.6103 56.5348C14.0577 56.4283 14.5137 56.3473 14.9782 56.2919C15.5662 56.2237 16.0435 56.1683 16.41 56.1257C16.7765 56.0788 17.0428 56.0043 17.209 55.902C17.3752 55.7997 17.4583 55.6335 17.4583 55.4034V55.3587C17.4583 54.8004 17.3006 54.3679 16.9853 54.0611C16.6742 53.7543 16.2097 53.6009 15.5918 53.6009C14.9483 53.6009 14.4412 53.7436 14.0705 54.0291C13.704 54.3104 13.4505 54.6236 13.3098 54.9688L11.5137 54.5597C11.7267 53.9631 12.0378 53.4815 12.4469 53.1151C12.8603 52.7443 13.3354 52.4759 13.8723 52.3097C14.4093 52.1392 14.9739 52.054 15.5662 52.054C15.9583 52.054 16.3738 52.1009 16.8127 52.1946C17.2559 52.2841 17.6692 52.4503 18.0527 52.6932C18.4405 52.9361 18.758 53.2834 19.0051 53.7351C19.2523 54.1825 19.3759 54.7642 19.3759 55.4801V62H17.5094V60.6577H17.4327C17.3091 60.9048 17.1238 61.1477 16.8766 61.3864C16.6294 61.625 16.312 61.8232 15.9242 61.9808C15.5364 62.1385 15.0719 62.2173 14.5307 62.2173ZM14.9462 60.6832C15.4746 60.6832 15.9263 60.5788 16.3013 60.37C16.6806 60.1612 16.9682 59.8885 17.1642 59.5518C17.3645 59.2109 17.4647 58.8466 17.4647 58.4588V57.1932C17.3965 57.2614 17.2644 57.3253 17.0684 57.3849C16.8766 57.4403 16.6571 57.4893 16.41 57.532C16.1628 57.5703 15.9221 57.6065 15.6877 57.6406C15.4533 57.6705 15.2573 57.696 15.0996 57.7173C14.7289 57.7642 14.3901 57.843 14.0833 57.9538C13.7807 58.0646 13.5378 58.2244 13.3546 58.4332C13.1756 58.6378 13.0861 58.9105 13.0861 59.2514C13.0861 59.7244 13.2608 60.0824 13.6103 60.3253C13.9597 60.5639 14.405 60.6832 14.9462 60.6832ZM26.0572 62.1982C25.1069 62.1982 24.2887 61.983 23.6026 61.5526C22.9208 61.1179 22.3967 60.5192 22.0302 59.7564C21.6637 58.9936 21.4805 58.12 21.4805 57.1357C21.4805 56.1385 21.668 55.2585 22.043 54.4957C22.418 53.7287 22.9464 53.13 23.6282 52.6996C24.31 52.2692 25.1133 52.054 26.038 52.054C26.7837 52.054 27.4485 52.1925 28.0323 52.4695C28.6161 52.7422 29.087 53.1257 29.445 53.62C29.8072 54.1143 30.0224 54.6918 30.0906 55.3523H28.2305C28.1282 54.892 27.8938 54.4957 27.5273 54.1634C27.1651 53.831 26.6793 53.6648 26.07 53.6648C25.5373 53.6648 25.0707 53.8054 24.6701 54.0866C24.2738 54.3636 23.9648 54.7599 23.7433 55.2756C23.5217 55.7869 23.4109 56.392 23.4109 57.0909C23.4109 57.8068 23.5195 58.4247 23.7369 58.9446C23.9542 59.4645 24.261 59.8672 24.6573 60.1527C25.0579 60.4382 25.5288 60.581 26.07 60.581C26.4322 60.581 26.7603 60.5149 27.0543 60.3828C27.3526 60.2464 27.6019 60.0526 27.8022 59.8011C28.0067 59.5497 28.1495 59.2472 28.2305 58.8935H30.0906C30.0224 59.5284 29.8157 60.0952 29.4705 60.5938C29.1254 61.0923 28.663 61.4844 28.0835 61.7699C27.5082 62.0554 26.8327 62.1982 26.0572 62.1982ZM36.2701 62.1982C35.3496 62.1982 34.5463 61.9872 33.8603 61.5653C33.1742 61.1435 32.6415 60.5533 32.2623 59.7947C31.883 59.0362 31.6934 58.1499 31.6934 57.1357C31.6934 56.1172 31.883 55.2266 32.2623 54.4638C32.6415 53.701 33.1742 53.1087 33.8603 52.6868C34.5463 52.2649 35.3496 52.054 36.2701 52.054C37.1905 52.054 37.9938 52.2649 38.6799 52.6868C39.3659 53.1087 39.8986 53.701 40.2779 54.4638C40.6571 55.2266 40.8468 56.1172 40.8468 57.1357C40.8468 58.1499 40.6571 59.0362 40.2779 59.7947C39.8986 60.5533 39.3659 61.1435 38.6799 61.5653C37.9938 61.9872 37.1905 62.1982 36.2701 62.1982ZM36.2765 60.5938C36.873 60.5938 37.3674 60.4361 37.7594 60.1207C38.1515 59.8054 38.4412 59.3857 38.6287 58.8615C38.8205 58.3374 38.9164 57.7599 38.9164 57.1293C38.9164 56.5028 38.8205 55.9276 38.6287 55.4034C38.4412 54.875 38.1515 54.451 37.7594 54.1314C37.3674 53.8118 36.873 53.652 36.2765 53.652C35.6756 53.652 35.177 53.8118 34.7807 54.1314C34.3887 54.451 34.0968 54.875 33.905 55.4034C33.7175 55.9276 33.6238 56.5028 33.6238 57.1293C33.6238 57.7599 33.7175 58.3374 33.905 58.8615C34.0968 59.3857 34.3887 59.8054 34.7807 60.1207C35.177 60.4361 35.6756 60.5938 36.2765 60.5938ZM50.3374 54.5788L48.6051 54.8857C48.5327 54.6641 48.4176 54.4531 48.2599 54.2528C48.1065 54.0526 47.8977 53.8885 47.6335 53.7607C47.3693 53.6328 47.0391 53.5689 46.6428 53.5689C46.1016 53.5689 45.6499 53.6903 45.2876 53.9332C44.9254 54.1719 44.7443 54.4808 44.7443 54.8601C44.7443 55.1882 44.8658 55.4524 45.1087 55.6527C45.3516 55.853 45.7436 56.017 46.2848 56.1449L47.8445 56.5028C48.7479 56.7116 49.4212 57.0334 49.8643 57.468C50.3075 57.9027 50.5291 58.4673 50.5291 59.1619C50.5291 59.75 50.3587 60.2741 50.0178 60.7344C49.6811 61.1903 49.2102 61.5483 48.6051 61.8082C48.0043 62.0682 47.3075 62.1982 46.5149 62.1982C45.4155 62.1982 44.5185 61.9638 43.8239 61.495C43.1293 61.022 42.7031 60.3509 42.5455 59.4815L44.3928 59.2003C44.5078 59.6818 44.7443 60.0462 45.1023 60.2933C45.4602 60.5362 45.9268 60.6577 46.5021 60.6577C47.1286 60.6577 47.6293 60.5277 48.0043 60.2678C48.3793 60.0036 48.5668 59.6818 48.5668 59.3026C48.5668 58.9957 48.4517 58.7379 48.2216 58.5291C47.9957 58.3203 47.6484 58.1626 47.1797 58.0561L45.5178 57.6918C44.6016 57.483 43.924 57.1506 43.4851 56.6946C43.0504 56.2386 42.8331 55.6612 42.8331 54.9624C42.8331 54.3828 42.995 53.8757 43.3189 53.4411C43.6428 53.0064 44.0902 52.6676 44.6612 52.4247C45.2322 52.1776 45.8864 52.054 46.6236 52.054C47.6847 52.054 48.5199 52.2841 49.1293 52.7443C49.7386 53.2003 50.1413 53.8118 50.3374 54.5788ZM61.5298 62.1982C60.6094 62.1982 59.8061 61.9872 59.12 61.5653C58.4339 61.1435 57.9013 60.5533 57.522 59.7947C57.1428 59.0362 56.9531 58.1499 56.9531 57.1357C56.9531 56.1172 57.1428 55.2266 57.522 54.4638C57.9013 53.701 58.4339 53.1087 59.12 52.6868C59.8061 52.2649 60.6094 52.054 61.5298 52.054C62.4503 52.054 63.2536 52.2649 63.9396 52.6868C64.6257 53.1087 65.1584 53.701 65.5376 54.4638C65.9169 55.2266 66.1065 56.1172 66.1065 57.1357C66.1065 58.1499 65.9169 59.0362 65.5376 59.7947C65.1584 60.5533 64.6257 61.1435 63.9396 61.5653C63.2536 61.9872 62.4503 62.1982 61.5298 62.1982ZM61.5362 60.5938C62.1328 60.5938 62.6271 60.4361 63.0192 60.1207C63.4112 59.8054 63.701 59.3857 63.8885 58.8615C64.0803 58.3374 64.1761 57.7599 64.1761 57.1293C64.1761 56.5028 64.0803 55.9276 63.8885 55.4034C63.701 54.875 63.4112 54.451 63.0192 54.1314C62.6271 53.8118 62.1328 53.652 61.5362 53.652C60.9354 53.652 60.4368 53.8118 60.0405 54.1314C59.6484 54.451 59.3565 54.875 59.1648 55.4034C58.9773 55.9276 58.8835 56.5028 58.8835 57.1293C58.8835 57.7599 58.9773 58.3374 59.1648 58.8615C59.3565 59.3857 59.6484 59.8054 60.0405 60.1207C60.4368 60.4361 60.9354 60.5938 61.5362 60.5938ZM70.1511 56.1705V62H68.2399V52.1818H70.0744V53.7798H70.1958C70.4217 53.2599 70.7754 52.8423 71.2569 52.527C71.7427 52.2116 72.3542 52.054 73.0914 52.054C73.7605 52.054 74.3464 52.1946 74.8493 52.4759C75.3521 52.7528 75.742 53.1662 76.019 53.7159C76.296 54.2656 76.4345 54.9453 76.4345 55.755V62H74.5233V55.9851C74.5233 55.2734 74.3379 54.7173 73.9672 54.3168C73.5964 53.9119 73.0872 53.7095 72.4395 53.7095C71.9963 53.7095 71.6021 53.8054 71.2569 53.9972C70.916 54.1889 70.6454 54.4702 70.4451 54.8409C70.2491 55.2074 70.1511 55.6506 70.1511 56.1705Z" fill="#9CA3AF"/>
<path d="M195.645 64.3017C195.645 68.5043 193.713 68.5043 192.747 68.5043C191.781 68.5043 189.849 68.5043 189.849 64.3017V52.4483H184.911V65.056C184.911 69.9052 188.131 73.3534 192.747 73.3534C197.362 73.3534 200.582 69.9052 200.582 65.056V52.4483H195.645V64.3017ZM244.052 51.8017C238.041 51.8017 233.104 56.6509 233.104 62.7931C233.104 68.8276 238.041 73.7845 244.052 73.7845C250.063 73.7845 255 68.8276 255 62.7931C255 56.7586 250.063 51.8017 244.052 51.8017ZM244.052 68.7198C240.725 68.7198 238.149 66.0259 238.149 62.6853C238.149 59.4526 240.725 56.7586 243.945 56.6509C247.165 56.6509 249.848 59.2371 249.955 62.4698V62.5776C249.955 66.0259 247.272 68.7198 244.052 68.7198ZM105.055 49L94 73.1379H99.5813L101.728 68.5043H108.383L110.529 73.1379H116.111L105.055 49ZM102.909 64.4095L104.948 59.3448L106.987 64.4095H102.909ZM128.883 52.556H120.833V72.9224H125.878V67.1035H128.561C133.499 67.1035 136.611 64.3017 136.611 59.7759V59.6681C136.719 55.25 133.713 52.556 128.883 52.556ZM131.567 59.9914C131.567 61.7155 130.386 62.7931 128.454 62.7931H125.878V57.1897H128.454C130.493 57.0819 131.567 58.1595 131.567 59.9914ZM149.706 52.556H141.656V72.9224H146.701V67.1035H149.384C154.321 67.1035 157.434 64.3017 157.434 59.7759V59.6681C157.541 55.25 154.536 52.556 149.706 52.556ZM152.389 59.9914C152.389 61.7155 151.209 62.7931 149.277 62.7931H146.701V57.1897H149.277C151.316 57.0819 152.389 58.1595 152.389 59.9914ZM172.461 59.0216C168.489 57.944 167.631 57.5129 167.631 56.1121V56.0043C167.631 54.9267 168.704 54.1724 170.421 54.1724C172.568 54.2802 174.607 55.0345 176.325 56.4353L176.432 56.5431L179.223 52.4483L179.115 52.3405C176.647 50.4009 173.534 49.3233 170.421 49.3233C165.591 49.3233 162.157 52.2328 162.157 56.4353V56.5431C162.157 61.3922 165.484 62.6853 169.992 63.7629C173.856 64.7328 174.5 65.3793 174.5 66.5647V66.6724C174.5 67.9655 173.319 68.7198 171.387 68.7198C168.919 68.6121 166.45 67.6422 164.625 65.9181L164.518 65.8103L161.298 69.6897L161.405 69.7974C164.089 72.2759 167.631 73.569 171.28 73.569C176.647 73.569 179.974 70.7672 179.974 66.2414V66.1336C179.974 61.8233 176.969 60.0991 172.461 59.0216ZM217.219 74L211.101 63.6552L209.276 73.2457H204.875L209.383 51.8017L217.326 65.2716L224.839 51.8017L229.347 73.2457H224.625L222.907 63.7629L217.219 74Z" fill="white"/>
</svg>
