<svg width="255" height="80" viewBox="0 0 255 80" fill="none" xmlns="http://www.w3.org/2000/svg">
<path d="M19.2403 13.3334L16.0003 2.66669L12.7603 13.3334H2.66699L10.907 19.2134L7.77366 29.3334L16.0003 23.08L24.2403 29.3334L21.107 19.2134L29.3337 13.3334H19.2403Z" fill="#FF9800"/>
<path d="M55.2403 13.3334L52.0003 2.66669L48.7603 13.3334H38.667L46.907 19.2134L43.7737 29.3334L52.0003 23.08L60.2403 29.3334L57.107 19.2134L65.3337 13.3334H55.2403Z" fill="#FF9800"/>
<path d="M91.2403 13.3334L88.0003 2.66669L84.7603 13.3334H74.667L82.907 19.2134L79.7737 29.3334L88.0003 23.08L96.2403 29.3334L93.107 19.2134L101.334 13.3334H91.2403Z" fill="#FF9800"/>
<path d="M127.24 13.3334L124 2.66669L120.76 13.3334H110.667L118.907 19.2134L115.774 29.3334L124 23.08L132.24 29.3334L129.107 19.2134L137.334 13.3334H127.24Z" fill="#FF9800"/>
<path d="M173.334 12.32L163.747 11.4934L160 2.66669L156.254 11.5067L146.667 12.32L153.947 18.6267L151.76 28L160 23.0267L168.24 28L166.067 18.6267L173.334 12.32ZM160 20.5334V8.13335L162.28 13.52L168.12 14.0267L163.694 17.8667L165.027 23.5734L160 20.5334Z" fill="#FF9800"/>
<path d="M1.43821 62V48.9091H6.1044C7.11861 48.9091 7.96023 49.0838 8.62926 49.4332C9.30256 49.7827 9.8054 50.2663 10.1378 50.8842C10.4702 51.4979 10.6364 52.2074 10.6364 53.0128C10.6364 53.8139 10.468 54.5192 10.1314 55.1286C9.79901 55.7337 9.29616 56.2045 8.62287 56.5412C7.95384 56.8778 7.11222 57.0462 6.09801 57.0462H2.56321V55.3459H5.91903C6.55824 55.3459 7.07813 55.2543 7.47869 55.071C7.88352 54.8878 8.17969 54.6214 8.36719 54.272C8.55469 53.9226 8.64844 53.5028 8.64844 53.0128C8.64844 52.5185 8.55256 52.0902 8.3608 51.728C8.1733 51.3658 7.87713 51.0888 7.4723 50.897C7.07173 50.701 6.54545 50.603 5.89347 50.603H3.41335V62H1.43821ZM7.90057 56.0938L11.1349 62H8.88494L5.71449 56.0938H7.90057ZM15.7436 62.2173C15.1214 62.2173 14.5589 62.1023 14.0561 61.8722C13.5533 61.6378 13.1548 61.299 12.8608 60.8558C12.571 60.4126 12.4261 59.8693 12.4261 59.2259C12.4261 58.6719 12.5327 58.2159 12.7457 57.858C12.9588 57.5 13.2464 57.2166 13.6087 57.0078C13.9709 56.799 14.3757 56.6413 14.8232 56.5348C15.2706 56.4283 15.7266 56.3473 16.1911 56.2919C16.7791 56.2237 17.2564 56.1683 17.6229 56.1257C17.9893 56.0788 18.2557 56.0043 18.4219 55.902C18.5881 55.7997 18.6712 55.6335 18.6712 55.4034V55.3587C18.6712 54.8004 18.5135 54.3679 18.1982 54.0611C17.8871 53.7543 17.4226 53.6009 16.8047 53.6009C16.1612 53.6009 15.6541 53.7436 15.2834 54.0291C14.9169 54.3104 14.6634 54.6236 14.5227 54.9688L12.7266 54.5597C12.9396 53.9631 13.2507 53.4815 13.6598 53.1151C14.0732 52.7443 14.5483 52.4759 15.0852 52.3097C15.6222 52.1392 16.1868 52.054 16.7791 52.054C17.1712 52.054 17.5866 52.1009 18.0256 52.1946C18.4688 52.2841 18.8821 52.4503 19.2656 52.6932C19.6534 52.9361 19.9709 53.2834 20.218 53.7351C20.4652 54.1825 20.5888 54.7642 20.5888 55.4801V62H18.7223V60.6577H18.6456C18.522 60.9048 18.3366 61.1477 18.0895 61.3864C17.8423 61.625 17.5249 61.8232 17.1371 61.9808C16.7493 62.1385 16.2848 62.2173 15.7436 62.2173ZM16.1591 60.6832C16.6875 60.6832 17.1392 60.5788 17.5142 60.37C17.8935 60.1612 18.1811 59.8885 18.3771 59.5518C18.5774 59.2109 18.6776 58.8466 18.6776 58.4588V57.1932C18.6094 57.2614 18.4773 57.3253 18.2812 57.3849C18.0895 57.4403 17.87 57.4893 17.6229 57.532C17.3757 57.5703 17.1349 57.6065 16.9006 57.6406C16.6662 57.6705 16.4702 57.696 16.3125 57.7173C15.9418 57.7642 15.603 57.843 15.2962 57.9538C14.9936 58.0646 14.7507 58.2244 14.5675 58.4332C14.3885 58.6378 14.299 58.9105 14.299 59.2514C14.299 59.7244 14.4737 60.0824 14.8232 60.3253C15.1726 60.5639 15.6179 60.6832 16.1591 60.6832ZM27.7175 52.1818V53.7159H22.3546V52.1818H27.7175ZM23.7928 49.8295H25.704V59.1172C25.704 59.4879 25.7594 59.767 25.8702 59.9545C25.981 60.1378 26.1238 60.2635 26.2985 60.3317C26.4775 60.3956 26.6713 60.4276 26.8801 60.4276C27.0336 60.4276 27.1678 60.4169 27.2828 60.3956C27.3979 60.3743 27.4874 60.3572 27.5513 60.3445L27.8965 61.9233C27.7857 61.9659 27.628 62.0085 27.4235 62.0511C27.2189 62.098 26.9632 62.1236 26.6564 62.1278C26.1536 62.1364 25.6848 62.0469 25.2502 61.8594C24.8155 61.6719 24.464 61.3821 24.1955 60.9901C23.927 60.598 23.7928 60.1058 23.7928 59.5135V49.8295ZM29.8317 62V52.1818H31.7429V62H29.8317ZM30.7969 50.6669C30.4645 50.6669 30.179 50.5561 29.9403 50.3345C29.706 50.1087 29.5888 49.8402 29.5888 49.5291C29.5888 49.2138 29.706 48.9453 29.9403 48.7237C30.179 48.4979 30.4645 48.3849 30.7969 48.3849C31.1293 48.3849 31.4126 48.4979 31.647 48.7237C31.8857 48.9453 32.005 49.2138 32.005 49.5291C32.005 49.8402 31.8857 50.1087 31.647 50.3345C31.4126 50.5561 31.1293 50.6669 30.7969 50.6669ZM36.2253 56.1705V62H34.3141V52.1818H36.1486V53.7798H36.2701C36.4959 53.2599 36.8496 52.8423 37.3311 52.527C37.8169 52.2116 38.4284 52.054 39.1657 52.054C39.8347 52.054 40.4206 52.1946 40.9235 52.4759C41.4263 52.7528 41.8162 53.1662 42.0932 53.7159C42.3702 54.2656 42.5087 54.9453 42.5087 55.755V62H40.5975V55.9851C40.5975 55.2734 40.4121 54.7173 40.0414 54.3168C39.6706 53.9119 39.1614 53.7095 38.5137 53.7095C38.0705 53.7095 37.6763 53.8054 37.3311 53.9972C36.9902 54.1889 36.7196 54.4702 36.5194 54.8409C36.3233 55.2074 36.2253 55.6506 36.2253 56.1705ZM49.1884 65.8864C48.4086 65.8864 47.7374 65.7841 47.1749 65.5795C46.6167 65.375 46.1607 65.1044 45.807 64.7678C45.4533 64.4311 45.1891 64.0625 45.0144 63.6619L46.6571 62.9844C46.7722 63.1719 46.9256 63.37 47.1174 63.5788C47.3134 63.7919 47.5776 63.973 47.91 64.1222C48.2466 64.2713 48.6792 64.3459 49.2076 64.3459C49.932 64.3459 50.5307 64.169 51.0037 63.8153C51.4767 63.4659 51.7132 62.9077 51.7132 62.1406V60.2102H51.5918C51.4767 60.419 51.3105 60.6513 51.0932 60.907C50.8801 61.1626 50.5861 61.3842 50.2111 61.5717C49.8361 61.7592 49.3482 61.853 48.7473 61.853C47.9718 61.853 47.2729 61.6719 46.6507 61.3097C46.0328 60.9432 45.5428 60.4041 45.1806 59.6925C44.8226 58.9766 44.6436 58.0966 44.6436 57.0526C44.6436 56.0085 44.8205 55.1136 45.1742 54.3679C45.5321 53.6222 46.0222 53.0511 46.6444 52.6548C47.2665 52.2543 47.9718 52.054 48.7601 52.054C49.3695 52.054 49.8617 52.1562 50.2367 52.3608C50.6117 52.5611 50.9036 52.7955 51.1124 53.0639C51.3255 53.3324 51.4895 53.5689 51.6046 53.7734H51.7452V52.1818H53.6181V62.2173C53.6181 63.0611 53.4221 63.7536 53.03 64.2947C52.638 64.8359 52.1074 65.2365 51.4384 65.4964C50.7736 65.7564 50.0236 65.8864 49.1884 65.8864ZM49.1692 60.2678C49.7189 60.2678 50.1834 60.1399 50.5627 59.8842C50.9462 59.6243 51.236 59.2536 51.432 58.772C51.6323 58.2862 51.7324 57.7045 51.7324 57.027C51.7324 56.3665 51.6344 55.7848 51.4384 55.282C51.2424 54.7791 50.9547 54.3871 50.5755 54.1058C50.1962 53.8203 49.7275 53.6776 49.1692 53.6776C48.5939 53.6776 48.1145 53.8267 47.731 54.125C47.3475 54.419 47.0577 54.8196 46.8617 55.3267C46.6699 55.8338 46.574 56.4006 46.574 57.027C46.574 57.6705 46.6721 58.2351 46.8681 58.7209C47.0641 59.2067 47.3539 59.5859 47.7374 59.8587C48.1252 60.1314 48.6025 60.2678 49.1692 60.2678ZM65.0806 62.1982C64.1602 62.1982 63.3569 61.9872 62.6708 61.5653C61.9847 61.1435 61.4521 60.5533 61.0728 59.7947C60.6935 59.0362 60.5039 58.1499 60.5039 57.1357C60.5039 56.1172 60.6935 55.2266 61.0728 54.4638C61.4521 53.701 61.9847 53.1087 62.6708 52.6868C63.3569 52.2649 64.1602 52.054 65.0806 52.054C66.0011 52.054 66.8043 52.2649 67.4904 52.6868C68.1765 53.1087 68.7092 53.701 69.0884 54.4638C69.4677 55.2266 69.6573 56.1172 69.6573 57.1357C69.6573 58.1499 69.4677 59.0362 69.0884 59.7947C68.7092 60.5533 68.1765 61.1435 67.4904 61.5653C66.8043 61.9872 66.0011 62.1982 65.0806 62.1982ZM65.087 60.5938C65.6836 60.5938 66.1779 60.4361 66.57 60.1207C66.962 59.8054 67.2518 59.3857 67.4393 58.8615C67.631 58.3374 67.7269 57.7599 67.7269 57.1293C67.7269 56.5028 67.631 55.9276 67.4393 55.4034C67.2518 54.875 66.962 54.451 66.57 54.1314C66.1779 53.8118 65.6836 53.652 65.087 53.652C64.4862 53.652 63.9876 53.8118 63.5913 54.1314C63.1992 54.451 62.9073 54.875 62.7156 55.4034C62.5281 55.9276 62.4343 56.5028 62.4343 57.1293C62.4343 57.7599 62.5281 58.3374 62.7156 58.8615C62.9073 59.3857 63.1992 59.8054 63.5913 60.1207C63.9876 60.4361 64.4862 60.5938 65.087 60.5938ZM73.7019 56.1705V62H71.7907V52.1818H73.6252V53.7798H73.7466C73.9725 53.2599 74.3262 52.8423 74.8077 52.527C75.2935 52.2116 75.905 52.054 76.6422 52.054C77.3113 52.054 77.8972 52.1946 78.4 52.4759C78.9029 52.7528 79.2928 53.1662 79.5698 53.7159C79.8468 54.2656 79.9853 54.9453 79.9853 55.755V62H78.074V55.9851C78.074 55.2734 77.8887 54.7173 77.5179 54.3168C77.1472 53.9119 76.638 53.7095 75.9902 53.7095C75.5471 53.7095 75.1529 53.8054 74.8077 53.9972C74.4668 54.1889 74.1962 54.4702 73.9959 54.8409C73.7999 55.2074 73.7019 55.6506 73.7019 56.1705Z" fill="#9CA3AF"/>
<path d="M94 57.0679H108.758H117.721V48.186L94 57.0679Z" fill="#FF9D28"/>
<path d="M117.721 48.186V79.581L128.937 44L117.721 48.186Z" fill="#68C5ED"/>
<path d="M117.721 57.0679H108.759L117.721 79.5542V57.0679V57.0679Z" fill="#044D80"/>
<path d="M94 57.0679L111.066 62.837L108.758 57.0679H94Z" fill="#E54747"/>
<path d="M148.364 71.2896C148.23 71.4238 148.015 71.5847 147.72 71.7726C147.425 71.9604 147.022 72.1751 146.539 72.3629C146.056 72.5508 145.466 72.7386 144.742 72.8728C144.044 73.0069 143.239 73.0874 142.327 73.0874C140.582 73.0874 139.053 72.7923 137.765 72.2556C136.477 71.6921 135.43 70.9139 134.599 69.8942C133.767 68.8746 133.15 67.6939 132.774 66.3254C132.371 64.9569 132.184 63.4274 132.184 61.7906C132.184 60.1537 132.398 58.6242 132.828 57.2289C133.257 55.8336 133.874 54.6261 134.733 53.6064C135.565 52.5867 136.638 51.7817 137.899 51.2182C139.16 50.6547 140.663 50.3596 142.38 50.3596C143.212 50.3596 143.99 50.4401 144.661 50.5742C145.332 50.7352 145.949 50.8962 146.459 51.1109C146.969 51.3256 147.398 51.5402 147.72 51.7549C148.069 51.9696 148.31 52.1842 148.471 52.3184C148.659 52.4794 148.847 52.6941 148.981 52.9356C149.115 53.1771 149.196 53.4454 149.196 53.7137C149.196 54.1431 149.035 54.5724 148.713 55.0017C148.391 55.4311 148.042 55.8336 147.64 56.2092C147.371 55.9409 147.076 55.6726 146.754 55.4042C146.432 55.1359 146.056 54.8944 145.654 54.6797C145.251 54.4651 144.795 54.3041 144.285 54.1699C143.776 54.0357 143.212 53.9552 142.568 53.9552C141.468 53.9552 140.529 54.1699 139.777 54.6261C139.026 55.0822 138.436 55.6457 137.98 56.3702C137.523 57.0947 137.201 57.8997 137.014 58.8121C136.826 59.7244 136.718 60.6636 136.718 61.6296C136.718 62.6492 136.826 63.6152 137.014 64.5544C137.201 65.4936 137.55 66.2986 138.033 67.0231C138.516 67.7476 139.133 68.3111 139.912 68.7404C140.69 69.1697 141.629 69.3844 142.783 69.3844C143.4 69.3844 143.937 69.3039 144.446 69.1698C144.956 69.0088 145.412 68.8209 145.788 68.6062C146.191 68.3916 146.513 68.1501 146.808 67.9354C147.103 67.6939 147.344 67.4792 147.532 67.3182C147.666 67.4792 147.801 67.6671 147.988 67.8817C148.176 68.0964 148.337 68.3379 148.471 68.5526C148.632 68.7941 148.74 69.0356 148.874 69.2771C148.981 69.5186 149.035 69.7332 149.035 69.9211C149.035 70.2162 148.981 70.4309 148.874 70.6456C148.767 70.8334 148.579 71.0481 148.364 71.2896ZM165.108 68.7941C165.108 70.5114 165.35 71.7726 165.859 72.5508C165.457 72.7118 165.108 72.8191 164.759 72.8728C164.41 72.9264 164.062 72.9801 163.686 72.9801C162.908 72.9801 162.317 72.8191 161.915 72.5239C161.512 72.2288 161.244 71.7726 161.137 71.2091C160.654 71.7189 160.037 72.1483 159.232 72.4971C158.453 72.8459 157.487 73.0069 156.36 73.0069C155.77 73.0069 155.18 72.9264 154.589 72.7654C153.999 72.6044 153.462 72.3361 152.979 71.9604C152.496 71.5848 152.121 71.1018 151.799 70.4846C151.504 69.8674 151.343 69.1161 151.343 68.2306C151.343 67.1304 151.611 66.2181 152.148 65.5204C152.684 64.8227 153.355 64.2861 154.16 63.8836C154.965 63.4811 155.851 63.2127 156.763 63.0517C157.702 62.8907 158.561 62.8102 159.339 62.7566C159.607 62.7297 159.849 62.7297 160.117 62.7297H160.815V62.1394C160.815 61.3076 160.6 60.7172 160.144 60.3416C159.688 59.9927 158.963 59.8049 157.97 59.8049C157.031 59.8049 156.199 59.9659 155.475 60.2611C154.75 60.5562 154.026 60.9051 153.328 61.3076C153.033 60.9319 152.765 60.5294 152.604 60.0732C152.416 59.6171 152.335 59.2951 152.335 59.0804C152.335 58.7852 152.496 58.4901 152.845 58.1949C153.194 57.8997 153.65 57.6582 154.241 57.4167C154.831 57.1752 155.502 57.0142 156.28 56.8532C157.031 56.7191 157.836 56.6386 158.695 56.6386C159.876 56.6386 160.868 56.7459 161.673 56.9874C162.478 57.2289 163.149 57.6046 163.659 58.0876C164.169 58.5974 164.545 59.2146 164.759 59.9659C164.974 60.7172 165.081 61.6027 165.081 62.5956L165.108 68.7941ZM160.922 65.0106H160.466C160.305 65.0106 160.171 65.0106 160.01 65.0374C159.473 65.0911 158.936 65.1447 158.4 65.2252C157.863 65.3057 157.38 65.4667 156.978 65.6814C156.575 65.8961 156.226 66.1912 155.958 66.5401C155.69 66.8889 155.555 67.3451 155.555 67.8817C155.555 68.4989 155.716 69.0088 156.065 69.4381C156.414 69.8674 157.004 70.0821 157.836 70.0821C158.239 70.0821 158.641 70.0284 159.017 69.9211C159.393 69.8137 159.715 69.6796 160.01 69.4917C160.305 69.3039 160.52 69.1161 160.681 68.9283C160.842 68.7136 160.922 68.5257 160.922 68.3647V65.0106ZM173.239 58.5706C173.587 58.1681 174.124 57.7387 174.875 57.3094C175.627 56.8801 176.539 56.6654 177.666 56.6654C178.471 56.6654 179.249 56.7996 179.974 57.0679C180.698 57.3362 181.342 57.7924 181.906 58.3827C182.469 58.9999 182.925 59.8049 183.247 60.7977C183.596 61.7906 183.757 63.0249 183.757 64.5007C183.757 66.1912 183.569 67.6134 183.167 68.7136C182.764 69.8137 182.281 70.6993 181.664 71.3164C181.047 71.9604 180.349 72.4166 179.598 72.6849C178.847 72.9533 178.069 73.0874 177.317 73.0874C176.7 73.0874 176.137 73.0069 175.68 72.8728C175.224 72.7386 174.822 72.5776 174.5 72.3898C174.178 72.2288 173.936 72.0409 173.748 71.8799C173.587 71.7189 173.453 71.5848 173.426 71.5311V79.5811H168.972V57.1484C169.079 57.1216 169.214 57.0947 169.375 57.0947C169.509 57.0679 169.67 57.0679 169.831 57.0411C170.019 57.0411 170.206 57.0142 170.448 57.0142C171.172 57.0142 171.79 57.1216 172.299 57.3631C172.782 57.6046 173.104 58.0071 173.239 58.5706ZM179.142 64.6081C179.142 63.9641 179.088 63.3469 178.981 62.7834C178.874 62.2199 178.686 61.7369 178.444 61.3076C178.203 60.9051 177.854 60.5831 177.425 60.3416C176.995 60.1001 176.485 59.9927 175.868 59.9927C174.956 59.9927 174.312 60.1806 173.963 60.5026C173.614 60.8514 173.426 61.2271 173.426 61.6564V68.6062C173.587 68.7941 173.909 68.9819 174.366 69.2234C174.822 69.4649 175.332 69.5723 175.922 69.5723C177.022 69.5723 177.827 69.1429 178.364 68.2574C178.874 67.3987 179.142 66.1912 179.142 64.6081ZM187.192 70.2431C187.031 69.8138 186.95 69.3576 186.897 68.8746C186.843 68.3916 186.843 67.9086 186.843 67.4256V52.2647C187.004 52.2379 187.165 52.2111 187.326 52.2111C187.487 52.1842 187.648 52.1842 187.809 52.1574C187.97 52.1574 188.158 52.1306 188.319 52.1306C188.668 52.1306 189.017 52.1574 189.365 52.2379C189.714 52.2916 190.036 52.4257 190.305 52.6404C190.6 52.8282 190.815 53.0966 191.002 53.4454C191.163 53.7942 191.271 54.2236 191.271 54.7602V57.0947H195.859V60.3952H191.298V67.3719C191.298 68.9014 191.915 69.6527 193.149 69.6527C193.444 69.6527 193.739 69.5991 194.008 69.5186C194.276 69.4112 194.518 69.3039 194.732 69.1966C194.947 69.0893 195.135 68.9551 195.296 68.8209C195.457 68.6867 195.564 68.5794 195.645 68.5258C195.967 69.0088 196.235 69.4112 196.396 69.7601C196.557 70.1089 196.664 70.4309 196.664 70.7529C196.664 71.0481 196.557 71.3164 196.315 71.5848C196.074 71.8531 195.752 72.1214 195.349 72.3361C194.947 72.5776 194.437 72.7654 193.847 72.8996C193.256 73.0338 192.612 73.1143 191.915 73.1143C190.573 73.1143 189.5 72.8459 188.748 72.3361C188.051 71.7726 187.514 71.1018 187.192 70.2431ZM207.129 69.8137C207.666 69.8137 208.149 69.7601 208.578 69.6259C208.981 69.5186 209.356 69.3576 209.705 69.1966C210.027 69.0356 210.322 68.8209 210.564 68.6331C210.805 68.4184 211.02 68.2306 211.208 68.0696C211.476 68.3916 211.745 68.8209 212.04 69.3308C212.335 69.8406 212.469 70.2699 212.469 70.5919C212.469 71.0749 212.201 71.5042 211.664 71.9067C211.208 72.2556 210.564 72.5508 209.705 72.8191C208.873 73.0606 207.881 73.1948 206.754 73.1948C205.734 73.1948 204.714 73.0606 203.721 72.7923C202.729 72.5239 201.843 72.0678 201.065 71.4238C200.287 70.7798 199.67 69.8943 199.187 68.7941C198.704 67.6939 198.462 66.2986 198.462 64.6349C198.462 63.2664 198.677 62.0857 199.106 61.0929C199.535 60.1001 200.099 59.2682 200.797 58.6242C201.494 57.9802 202.299 57.4972 203.212 57.1752C204.097 56.8801 205.009 56.7191 205.949 56.7191C207.156 56.7191 208.203 56.9069 209.061 57.2826C209.92 57.6582 210.591 58.1681 211.127 58.8121C211.664 59.4561 212.04 60.1806 212.281 61.0124C212.523 61.8442 212.63 62.7029 212.63 63.6152V64.0714C212.63 64.2592 212.63 64.4202 212.603 64.6349C212.603 64.8227 212.576 65.0106 212.576 65.1984C212.576 65.3862 212.55 65.5204 212.523 65.6277H202.89C202.97 66.8352 203.346 67.8281 204.017 68.6331C204.661 69.4113 205.707 69.8137 207.129 69.8137ZM208.632 63.1859C208.632 62.1394 208.417 61.2807 208.015 60.6367C207.612 59.9927 206.888 59.6439 205.841 59.6439C204.929 59.6439 204.231 59.9659 203.695 60.5831C203.158 61.2002 202.89 62.0589 202.89 63.1859H208.632ZM220.385 58.6511C220.519 58.4632 220.68 58.2486 220.895 58.0071C221.109 57.7656 221.378 57.5509 221.7 57.3631C222.022 57.1752 222.371 57.0142 222.746 56.8801C223.122 56.7459 223.524 56.6922 223.981 56.6922C224.249 56.6922 224.517 56.7191 224.812 56.7459C225.108 56.7996 225.376 56.8801 225.617 56.9874C225.859 57.0947 226.074 57.2557 226.235 57.4704C226.396 57.6851 226.476 57.9266 226.476 58.2217C226.476 58.7047 226.369 59.2414 226.127 59.8586C225.886 60.4757 225.644 61.0124 225.403 61.4417C225.027 61.1466 224.651 60.9051 224.303 60.7441C223.927 60.5831 223.498 60.5026 222.988 60.5026C222.317 60.5026 221.753 60.6904 221.297 61.0929C220.841 61.4954 220.6 61.9516 220.6 62.5151V73.0874H216.145V57.1216C216.253 57.0947 216.387 57.0679 216.548 57.0679C216.682 57.0411 216.843 57.0411 217.004 57.0142C217.165 57.0142 217.38 56.9874 217.621 56.9874C218.319 56.9874 218.936 57.1216 219.446 57.3899C219.929 57.6851 220.251 58.0876 220.385 58.6511ZM233.023 58.6511C233.158 58.4632 233.319 58.2486 233.533 58.0071C233.748 57.7656 234.016 57.5509 234.338 57.3631C234.66 57.1752 235.009 57.0142 235.385 56.8801C235.76 56.7459 236.163 56.6922 236.619 56.6922C236.887 56.6922 237.156 56.7191 237.451 56.7459C237.746 56.7996 238.014 56.8801 238.256 56.9874C238.497 57.0947 238.712 57.2557 238.873 57.4704C239.034 57.6851 239.115 57.9266 239.115 58.2217C239.115 58.7047 239.007 59.2414 238.766 59.8586C238.524 60.4757 238.283 61.0124 238.041 61.4417C237.666 61.1466 237.29 60.9051 236.941 60.7441C236.565 60.5831 236.136 60.5026 235.626 60.5026C234.955 60.5026 234.392 60.6904 233.936 61.0929C233.48 61.4954 233.238 61.9516 233.238 62.5151V73.0874H228.784V57.1216C228.891 57.0947 229.025 57.0679 229.186 57.0679C229.32 57.0411 229.481 57.0411 229.642 57.0142C229.803 57.0142 230.018 56.9874 230.26 56.9874C230.957 56.9874 231.574 57.1216 232.084 57.3899C232.567 57.6851 232.889 58.0876 233.023 58.6511ZM254.249 68.7941C254.249 70.5114 254.49 71.7726 255 72.5508C254.597 72.7118 254.249 72.8191 253.9 72.8728C253.551 72.9264 253.202 72.9801 252.826 72.9801C252.048 72.9801 251.458 72.8191 251.055 72.5239C250.653 72.2288 250.385 71.7726 250.277 71.2091C249.794 71.7189 249.177 72.1483 248.372 72.4971C247.594 72.8459 246.628 73.0069 245.501 73.0069C244.911 73.0069 244.32 72.9264 243.73 72.7654C243.14 72.6044 242.603 72.3361 242.12 71.9604C241.637 71.5848 241.261 71.1018 240.939 70.4846C240.644 69.8674 240.483 69.1161 240.483 68.2306C240.483 67.1304 240.751 66.2181 241.288 65.5204C241.825 64.8227 242.496 64.2861 243.301 63.8836C244.106 63.4811 244.991 63.2127 245.903 63.0517C246.843 62.8907 247.701 62.8102 248.479 62.7566C248.748 62.7297 248.989 62.7297 249.258 62.7297H249.955V62.1394C249.955 61.3076 249.741 60.7172 249.284 60.3416C248.828 59.9927 248.104 59.8049 247.111 59.8049C246.172 59.8049 245.34 59.9659 244.615 60.2611C243.891 60.5562 243.166 60.9051 242.469 61.3076C242.174 60.9319 241.905 60.5294 241.744 60.0732C241.556 59.6171 241.476 59.2951 241.476 59.0804C241.476 58.7852 241.637 58.4901 241.986 58.1949C242.335 57.8997 242.791 57.6582 243.381 57.4167C243.971 57.1752 244.642 57.0142 245.42 56.8532C246.172 56.7191 246.977 56.6386 247.835 56.6386C249.016 56.6386 250.009 56.7459 250.814 56.9874C251.619 57.2289 252.29 57.6046 252.8 58.0876C253.309 58.5974 253.685 59.2146 253.9 59.9659C254.114 60.7172 254.222 61.6027 254.222 62.5956L254.249 68.7941ZM250.063 65.0106H249.606C249.445 65.0106 249.311 65.0106 249.15 65.0374C248.614 65.0911 248.077 65.1447 247.54 65.2252C247.004 65.3057 246.521 65.4667 246.118 65.6814C245.716 65.8961 245.367 66.1912 245.098 66.5401C244.83 66.8889 244.696 67.3451 244.696 67.8817C244.696 68.4989 244.857 69.0088 245.206 69.4381C245.555 69.8674 246.145 70.0821 246.977 70.0821C247.379 70.0821 247.782 70.0284 248.157 69.9211C248.533 69.8137 248.855 69.6796 249.15 69.4917C249.445 69.3039 249.66 69.1161 249.821 68.9283C249.982 68.7136 250.063 68.5257 250.063 68.3647V65.0106Z" fill="#343D45"/>
</svg>
