<svg width="60" height="60" viewBox="0 0 60 60" fill="none" xmlns="http://www.w3.org/2000/svg">
<g clip-path="url(#clip0_1474_12495)">
<path d="M27.8366 37.7842C27.94 38.7841 28.784 39.5283 29.7675 39.5283C29.8344 39.5283 29.9017 39.525 29.9696 39.518C31.0374 39.4076 31.8135 38.4526 31.7031 37.3849L30.8067 28.7115C30.6963 27.6438 29.7408 26.8687 28.6736 26.9781C27.6059 27.0885 26.8297 28.0434 26.9401 29.1112L27.8366 37.7842Z" fill="#FFCD66"/>
<path d="M40.0001 39.5177C40.068 39.5247 40.1353 39.5281 40.2022 39.5281C41.1859 39.5281 42.0298 38.7838 42.1332 37.784L43.0293 29.1106C43.1397 28.0426 42.3635 27.0877 41.2958 26.9775C40.2273 26.8684 39.2729 27.6436 39.1625 28.711L38.2663 37.3844C38.1559 38.4523 38.9321 39.4073 40.0001 39.5177Z" fill="#FFCD66"/>
<path d="M24.9498 47.9663C21.6324 47.9663 18.9336 50.6651 18.9336 53.9826C18.9336 57.3008 21.6324 60.0004 24.9498 60.0004C28.2673 60.0004 30.9663 57.3008 30.9663 53.9826C30.9663 50.6651 28.2673 47.9663 24.9498 47.9663ZM24.9498 56.1128C23.7759 56.1128 22.8209 55.157 22.8209 53.9823C22.8209 52.8083 23.7759 51.8534 24.9498 51.8534C26.1238 51.8534 27.079 52.8083 27.079 53.9823C27.079 55.157 26.1238 56.1128 24.9498 56.1128Z" fill="#FF9800"/>
<path d="M45.0185 47.9663C41.701 47.9663 39.002 50.6651 39.002 53.9826C39.002 57.3008 41.7008 60.0004 45.0185 60.0004C48.3361 60.0004 51.0355 57.3008 51.0355 53.9826C51.0355 50.6651 48.3361 47.9663 45.0185 47.9663ZM45.0185 56.1128C43.8445 56.1128 42.8893 55.157 42.8893 53.9823C42.8893 52.8083 43.8445 51.8534 45.0185 51.8534C46.1927 51.8534 47.1482 52.8083 47.1482 53.9823C47.1482 55.157 46.1929 56.1128 45.0185 56.1128Z" fill="#FF9800"/>
<path d="M56.6449 20.4938C56.2769 20.0178 55.7091 19.7389 55.1074 19.7389H16.3652L14.7382 13.4827C14.5154 12.6262 13.742 12.0283 12.857 12.0283H4.89092C3.8175 12.0283 2.94727 12.8986 2.94727 13.972C2.94727 15.0454 3.8175 15.9156 4.89092 15.9156H11.3542L12.968 22.1213C12.976 22.156 12.9851 22.1905 12.9949 22.2245L18.9961 45.301C19.219 46.1575 19.9923 46.7554 20.8773 46.7554H49.0924C49.9774 46.7554 50.7507 46.1575 50.9736 45.301L56.9886 22.1716C57.1399 21.5898 57.0129 20.9702 56.6449 20.4938ZM47.5896 42.8686H22.3802L17.3762 23.6265H52.5938L47.5896 42.8686Z" fill="#FF9800"/>
<path d="M27.3542 13.6964C27.7336 14.0756 28.231 14.2653 28.7283 14.2653C29.2259 14.2653 29.7234 14.0753 30.1031 13.6957C30.8619 12.9363 30.8616 11.7056 30.1023 10.9468L23.9897 4.83701C23.2303 4.0782 21.9999 4.07846 21.2408 4.83752C20.482 5.59684 20.4823 6.82756 21.2413 7.58637L27.3542 13.6964Z" fill="#FFCD66"/>
<path d="M41.2501 14.2652C41.7477 14.2652 42.2455 14.0752 42.6252 13.6953L48.7287 7.58627C49.4875 6.82695 49.4868 5.59623 48.7274 4.83769C47.9681 4.07889 46.7374 4.07967 45.9789 4.83899L39.8753 10.948C39.1165 11.7073 39.1173 12.9381 39.8766 13.6969C40.256 14.0757 40.753 14.2652 41.2501 14.2652Z" fill="#FFCD66"/>
<path d="M34.9861 12.52C34.9864 12.52 34.9864 12.52 34.9866 12.52C36.0598 12.52 36.93 11.65 36.9303 10.5768L36.9324 1.94417C36.9326 0.870756 36.0626 0.000259154 34.9892 0C34.989 0 34.989 0 34.989 0C33.9155 0 33.0453 0.869978 33.045 1.94313L33.043 10.5758C33.0427 11.6492 33.9127 12.5197 34.9861 12.52Z" fill="#FFCD66"/>
</g>
<defs>
<clipPath id="clip0_1474_12495">
<rect width="60" height="60" fill="white"/>
</clipPath>
</defs>
</svg>
