<svg width="36" height="36" viewBox="0 0 36 36" fill="none" xmlns="http://www.w3.org/2000/svg">
<path d="M22.5 22.5V25.5H27V30H30V25.5H34.5V22.5H30V18H27V22.5H22.5ZM22.455 17.415C22.275 15.42 20.385 13.455 18 13.5C15.45 13.545 13.5 15.45 13.5 18C13.5 20.55 15.45 22.41 18 22.5C18.57 22.5 19.155 22.38 19.71 22.155C20.115 20.505 20.79 18.945 22.455 17.415ZM19.5 24H10.5C10.5 23.2044 10.1839 22.4413 9.62132 21.8787C9.05871 21.3161 8.29565 21 7.5 21V15C9.165 15 10.5 13.665 10.5 12H25.5C25.5 12.7956 25.8161 13.5587 26.3787 14.1213C26.9413 14.6839 27.7044 15 28.5 15V15.09C29.505 15.09 30.51 15.27 31.5 15.6V9H4.5V27H19.98C19.6613 26.0319 19.4992 25.0192 19.5 24Z" fill="#4B5563"/>
</svg>
