<svg width="36" height="36" viewBox="0 0 36 36" fill="none" xmlns="http://www.w3.org/2000/svg">
<path d="M28.5 4.5H22.23C21.6 2.76 19.95 1.5 18 1.5C16.05 1.5 14.4 2.76 13.77 4.5H7.5C6.70435 4.5 5.94129 4.81607 5.37868 5.37868C4.81607 5.94129 4.5 6.70435 4.5 7.5V28.5C4.5 29.2956 4.81607 30.0587 5.37868 30.6213C5.94129 31.1839 6.70435 31.5 7.5 31.5H28.5C29.2956 31.5 30.0587 31.1839 30.6213 30.6213C31.1839 30.0587 31.5 29.2956 31.5 28.5V7.5C31.5 6.70435 31.1839 5.94129 30.6213 5.37868C30.0587 4.81607 29.2956 4.5 28.5 4.5ZM18 4.5C18.3978 4.5 18.7794 4.65804 19.0607 4.93934C19.342 5.22064 19.5 5.60217 19.5 6C19.5 6.39782 19.342 6.77936 19.0607 7.06066C18.7794 7.34196 18.3978 7.5 18 7.5C17.6022 7.5 17.2206 7.34196 16.9393 7.06066C16.658 6.77936 16.5 6.39782 16.5 6C16.5 5.60217 16.658 5.22064 16.9393 4.93934C17.2206 4.65804 17.6022 4.5 18 4.5ZM10.5 10.5H25.5V7.5H28.5V28.5H7.5V7.5H10.5V10.5ZM11.25 20.25L13.5 18L16.5 21L23.25 14.25L25.5 16.5L16.5 25.5L11.25 20.25Z" fill="#4B5563"/>
</svg>
