<svg width="60" height="60" viewBox="0 0 60 60" fill="none" xmlns="http://www.w3.org/2000/svg">
<path d="M40 37.5H22.5V32.5H40V37.5ZM47.5 27.5H22.5V22.5H47.5V27.5ZM47.5 17.5H22.5V12.5H47.5V17.5ZM52.5 2.5H17.5C14.725 2.5 12.5 4.725 12.5 7.5V42.5C12.5 43.8261 13.0268 45.0979 13.9645 46.0355C14.9021 46.9732 16.1739 47.5 17.5 47.5H52.5C55.275 47.5 57.5 45.275 57.5 42.5V7.5C57.5 6.17392 56.9732 4.90215 56.0355 3.96447C55.0979 3.02678 53.8261 2.5 52.5 2.5ZM7.5 12.5V52.5H47.5V57.5H7.5C6.17392 57.5 4.90215 56.9732 3.96447 56.0355C3.02678 55.0979 2.5 53.8261 2.5 52.5V12.5H7.5Z" fill="#FF9800"/>
<path d="M8 12H2V52C2 55.3137 4.68629 58 8 58H48V52L8 52V12Z" fill="#FFCD66"/>
</svg>
