<svg width="60" height="60" viewBox="0 0 60 60" fill="none" xmlns="http://www.w3.org/2000/svg">
<path d="M47.5 2.5L44.35 9.375L37.5 12.5L44.35 15.65L47.5 22.5L50.625 15.65L57.5 12.5L50.625 9.375L47.5 2.5ZM22.5 10L16.25 23.75L2.5 30L16.25 36.25L22.5 50L28.75 36.25L42.5 30L28.75 23.75L22.5 10ZM47.5 37.5L44.35 44.35L37.5 47.5L44.35 50.625L47.5 57.5L50.625 50.625L57.5 47.5L50.625 44.35" fill="#FF9800"/>
<path d="M51 9L47.5 2.5L44 9L37.5 12.5L44 16L47.5 22.5L51 16L57.5 12.5L51 9Z" fill="#FFCD66"/>
</svg>
