<svg width="40" height="40" viewBox="0 0 40 40" fill="none" xmlns="http://www.w3.org/2000/svg">
<path d="M31.2006 24.5999C31.784 23.1833 32.1007 21.6666 32.1007 19.9999C32.1007 18.7999 31.9173 17.6499 31.6006 16.5833C30.5173 16.8333 29.384 16.9666 28.2007 16.9666C25.7773 16.9692 23.3888 16.3892 21.2365 15.2753C19.0843 14.1615 17.2314 12.5465 15.834 10.5666C14.3391 14.1836 11.5192 17.093 7.95065 18.6999C7.88398 19.1166 7.88398 19.5666 7.88398 19.9999C7.88398 21.5911 8.19739 23.1667 8.80631 24.6368C9.41523 26.1069 10.3077 27.4426 11.4329 28.5677C13.7052 30.84 16.7871 32.1166 20.0007 32.1166C21.7507 32.1166 23.434 31.7333 24.9507 31.0499C25.9007 32.8666 26.334 33.7666 26.3007 33.7666C23.5673 34.6833 21.4507 35.1333 20.0007 35.1333C15.9673 35.1333 12.1173 33.5499 9.28398 30.6999C7.56065 28.9819 6.2796 26.8716 5.55065 24.5499H3.33398V16.9666H5.15065C5.70105 14.2875 6.96647 11.8073 8.81263 9.78927C10.6588 7.77124 13.0168 6.29063 15.6365 5.50455C18.2562 4.71847 21.0399 4.65624 23.6921 5.32446C26.3443 5.99269 28.7662 7.36644 30.7007 9.29995C32.801 11.392 34.2337 14.0601 34.8173 16.9666H36.6673V24.5499H36.5673L30.634 29.9999L21.8007 28.9999V26.2166H29.8507L31.2006 24.5999V24.5999ZM15.4507 19.6166C15.9507 19.6166 16.434 19.8166 16.784 20.1833C17.1357 20.5379 17.3331 21.0171 17.3331 21.5166C17.3331 22.0161 17.1357 22.4953 16.784 22.8499C16.434 23.1999 15.9507 23.3999 15.4507 23.3999C14.4007 23.3999 13.5507 22.5666 13.5507 21.5166C13.5507 20.4666 14.4007 19.6166 15.4507 19.6166V19.6166ZM24.534 19.6166C25.584 19.6166 26.4173 20.4666 26.4173 21.5166C26.4173 22.5666 25.584 23.3999 24.534 23.3999C23.484 23.3999 22.634 22.5666 22.634 21.5166C22.634 21.0127 22.8342 20.5294 23.1905 20.1731C23.5468 19.8168 24.0301 19.6166 24.534 19.6166V19.6166Z" fill="#111827"/>
</svg>
