<svg width="36" height="36" viewBox="0 0 36 36" fill="none" xmlns="http://www.w3.org/2000/svg">
<path d="M24.75 24.375L29.04 26.91L27.915 28.74L22.5 25.5V18H24.75V24.375ZM34.5 24C34.5 29.805 29.805 34.5 24 34.5C22.306 34.5013 20.6368 34.0927 19.1349 33.3092C17.633 32.5256 16.343 31.3902 15.375 30C9.27 29.685 4.5 27.12 4.5 24V19.5C4.5 22.32 8.37 24.66 13.59 25.32C13.545 24.885 13.5 24.45 13.5 24C13.5 23.43 13.56 22.875 13.65 22.32C8.4 21.675 4.5 19.32 4.5 16.5V12C4.5 15.135 9.3 17.7 15.405 18C16.305 16.71 17.46 15.66 18.795 14.895C18.06 14.955 17.25 15 16.5 15C9.87 15 4.5 12.315 4.5 9C4.5 5.685 9.87 3 16.5 3C23.13 3 28.5 5.685 28.5 9C28.5 10.8 26.895 12.42 24.375 13.5C25.5 13.56 26.625 13.785 27.66 14.175C28.185 13.5 28.5 12.75 28.5 12V14.52C32.04 16.215 34.5 19.815 34.5 24ZM31.5 24C31.5 19.86 28.14 16.5 24 16.5C19.86 16.5 16.5 19.86 16.5 24C16.5 28.14 19.86 31.5 24 31.5C28.14 31.5 31.5 28.14 31.5 24Z" fill="#4B5563"/>
</svg>
