<svg width="56" height="56" viewBox="0 0 56 56" fill="none" xmlns="http://www.w3.org/2000/svg">
<g opacity="0.96">
<path d="M0 8C0 3.58172 3.58172 0 8 0H48C52.4183 0 56 3.58172 56 8V48C56 52.4183 52.4183 56 48 56H8C3.58172 56 0 52.4183 0 48V8Z" fill="#AA00FF"/>
<path d="M38.0227 29.9886H17.9773V18.8523H38.0227V29.9886ZM38.0227 16.625H17.9773C16.7411 16.625 15.75 17.6161 15.75 18.8523V32.2159C15.75 32.8066 15.9847 33.3731 16.4024 33.7908C16.82 34.2085 17.3866 34.4432 17.9773 34.4432H25.7727L23.5455 37.7841V38.8977H32.4545V37.7841L30.2273 34.4432H38.0227C38.6134 34.4432 39.18 34.2085 39.5976 33.7908C40.0153 33.3731 40.25 32.8066 40.25 32.2159V18.8523C40.25 18.2616 40.0153 17.695 39.5976 17.2774C39.18 16.8597 38.6134 16.625 38.0227 16.625Z" fill="white"/>
</g>
</svg>
