<svg width="56" height="56" viewBox="0 0 56 56" fill="none" xmlns="http://www.w3.org/2000/svg">
<path d="M0 8C0 3.58172 3.58172 0 8 0H48C52.4183 0 56 3.58172 56 8V48C56 52.4183 52.4183 56 48 56H8C3.58172 56 0 52.4183 0 48V8Z" fill="#304FFE"/>
<path d="M37.9173 26.8334H36.1673V22.1667C36.1673 21.5478 35.9215 20.9544 35.4839 20.5168C35.0463 20.0792 34.4528 19.8334 33.834 19.8334H29.1673V18.0834C29.1673 17.3098 28.86 16.5679 28.313 16.021C27.7661 15.474 27.0242 15.1667 26.2507 15.1667C25.4771 15.1667 24.7352 15.474 24.1883 16.021C23.6413 16.5679 23.334 17.3098 23.334 18.0834V19.8334H18.6673C18.0485 19.8334 17.455 20.0792 17.0174 20.5168C16.5798 20.9544 16.334 21.5478 16.334 22.1667V26.6H18.084C19.834 26.6 21.234 28 21.234 29.75C21.234 31.5 19.834 32.9 18.084 32.9H16.334V37.3334C16.334 37.9522 16.5798 38.5457 17.0174 38.9833C17.455 39.4209 18.0485 39.6667 18.6673 39.6667H23.1007V37.9167C23.1007 36.1667 24.5007 34.7667 26.2507 34.7667C28.0007 34.7667 29.4007 36.1667 29.4007 37.9167V39.6667H33.834C34.4528 39.6667 35.0463 39.4209 35.4839 38.9833C35.9215 38.5457 36.1673 37.9522 36.1673 37.3334V32.6667H37.9173C38.6909 32.6667 39.4327 32.3594 39.9797 31.8124C40.5267 31.2654 40.834 30.5236 40.834 29.75C40.834 28.9765 40.5267 28.2346 39.9797 27.6876C39.4327 27.1406 38.6909 26.8334 37.9173 26.8334Z" fill="white"/>
</svg>
