<svg width="60" height="60" viewBox="0 0 60 60" fill="none" xmlns="http://www.w3.org/2000/svg">
<g clip-path="url(#clip0_1474_12481)">
<path d="M48.5208 17.5395L38.615 16.1001L34.185 7.12396C32.4739 3.65674 27.5262 3.65779 25.8157 7.12385L21.3857 16.0999L11.4799 17.5395C7.65339 18.0954 6.12597 22.8011 8.89371 25.4992L16.0616 32.4861L14.3695 42.3516C13.716 46.1626 17.719 49.0694 21.1405 47.2711L30.0005 42.6129L38.8605 47.2711C42.2773 49.0672 46.285 46.162 45.6315 42.3516L43.9395 32.486L51.1075 25.4991C53.8757 22.8 52.3457 18.0953 48.5208 17.5395ZM48.315 22.6349L40.3942 30.3557C39.9229 30.8152 39.7078 31.4772 39.819 32.1259L41.6889 43.028C41.7827 43.5755 41.2131 43.9889 40.7216 43.7308L30.9309 38.5835C30.3484 38.2773 29.6522 38.2773 29.0696 38.5835L19.279 43.7308C18.7873 43.9892 18.2178 43.5754 18.3117 43.028L20.1816 32.1259C20.2928 31.4772 20.0777 30.8152 19.6064 30.3557L11.6856 22.6349C11.2877 22.2471 11.5053 21.5778 12.0551 21.4977L23.0013 19.9071C23.6527 19.8124 24.2159 19.4035 24.5072 18.8132L29.4026 8.89408C29.6483 8.39627 30.3523 8.39592 30.5981 8.8942L35.4935 18.8132C35.7848 19.4035 36.348 19.8126 36.9994 19.9071L47.9456 21.4977C48.4952 21.5778 48.7127 22.2472 48.315 22.6349Z" fill="#FF9800"/>
<path d="M15.7893 5.52581L13.3974 2.23366C12.7479 1.34022 11.4973 1.14194 10.6038 1.79139C9.71028 2.44061 9.51212 3.69136 10.1615 4.58491L12.5534 7.87694C13.2031 8.77085 14.4537 8.96831 15.3469 8.31921C16.2404 7.67011 16.4386 6.41936 15.7893 5.52581Z" fill="#FFCD66"/>
<path d="M7.85129 35.0281C7.51015 33.9777 6.38187 33.4024 5.33117 33.7441L1.38242 35.0272C0.331953 35.3685 -0.242852 36.4967 0.0983982 37.5473C0.440234 38.5995 1.57039 39.1723 2.61851 38.8313L6.56726 37.5482C7.61785 37.2068 8.19265 36.0786 7.85129 35.0281Z" fill="#FFCD66"/>
<path d="M49.3977 1.79133C48.5042 1.14211 47.2535 1.34004 46.6041 2.23359L44.2122 5.52562C43.5629 6.41918 43.7611 7.67003 44.6546 8.31913C45.5485 8.96859 46.7991 8.77007 47.4481 7.87687L49.84 4.58484C50.4893 3.69129 50.2912 2.44043 49.3977 1.79133Z" fill="#FFCD66"/>
<path d="M58.6181 35.0273L54.6693 33.7442C53.6189 33.4022 52.4906 33.9777 52.1492 35.0282C51.8079 36.0787 52.3827 37.2071 53.4333 37.5483L57.382 38.8314C58.4302 39.1723 59.5603 38.5995 59.9021 37.5474C60.2435 36.4969 59.6686 35.3686 58.6181 35.0273Z" fill="#FFCD66"/>
<path d="M29.9999 50.5317C28.8954 50.5317 28 51.4272 28 52.5317V56.5908C28 57.6953 28.8954 58.5907 29.9999 58.5907C31.1044 58.5907 31.9998 57.6953 31.9998 56.5908V52.5317C32 51.4271 31.1045 50.5317 29.9999 50.5317Z" fill="#FFCD66"/>
</g>
<defs>
<clipPath id="clip0_1474_12481">
<rect width="60" height="60" fill="white"/>
</clipPath>
</defs>
</svg>
