<svg width="25" height="28" viewBox="0 0 25 28" fill="none" xmlns="http://www.w3.org/2000/svg">
<path d="M15.9997 14V25.82C16.0597 26.27 15.9097 26.75 15.5647 27.065C15.4259 27.2041 15.2611 27.3144 15.0796 27.3896C14.8982 27.4649 14.7037 27.5037 14.5072 27.5037C14.3108 27.5037 14.1162 27.4649 13.9348 27.3896C13.7533 27.3144 13.5885 27.2041 13.4497 27.065L10.4347 24.05C10.2711 23.8901 10.1467 23.6945 10.0713 23.4785C9.99579 23.2625 9.97131 23.032 9.99971 22.805V14H9.95471L1.31471 2.93C1.07112 2.6173 0.961209 2.22089 1.00899 1.82739C1.05677 1.4339 1.25836 1.07532 1.56971 0.83C1.85471 0.62 2.16971 0.5 2.49971 0.5H23.4997C23.8297 0.5 24.1447 0.62 24.4297 0.83C24.7411 1.07532 24.9426 1.4339 24.9904 1.82739C25.0382 2.22089 24.9283 2.6173 24.6847 2.93L16.0447 14H15.9997Z" fill="#4B5563"/>
</svg>
