<svg width="60" height="60" viewBox="0 0 60 60" fill="none" xmlns="http://www.w3.org/2000/svg">
<g clip-path="url(#clip0_1474_12470)">
<path d="M16.328 13.8412L11.3562 8.86936C10.6697 8.18287 9.5567 8.18287 8.87033 8.86936C8.18385 9.55584 8.18385 10.6688 8.87033 11.3553L13.8421 16.3271C14.5285 17.0135 15.6417 17.0135 16.328 16.3271C17.0145 15.6406 17.0145 14.5276 16.328 13.8412Z" fill="#FFCD66"/>
<path d="M8.90625 28.2422H1.75781C0.787031 28.2422 0 29.0292 0 30C0 30.9708 0.787031 31.7578 1.75781 31.7578H8.90625C9.87703 31.7578 10.6641 30.9708 10.6641 30C10.6641 29.0292 9.87703 28.2422 8.90625 28.2422Z" fill="#FFCD66"/>
<path d="M58.2422 28.2422H51.0938C50.123 28.2422 49.3359 29.0292 49.3359 30C49.3359 30.9708 50.123 31.7578 51.0938 31.7578H58.2422C59.213 31.7578 60 30.9708 60 30C60 29.0292 59.213 28.2422 58.2422 28.2422Z" fill="#FFCD66"/>
<path d="M51.1308 8.86984C50.4444 8.18336 49.3314 8.18336 48.6449 8.86984L43.6731 13.8416C42.9866 14.5281 42.9866 15.6411 43.6731 16.3275C44.3594 17.014 45.4726 17.014 46.159 16.3275L51.1308 11.3557C51.8173 10.6693 51.8173 9.55633 51.1308 8.86984Z" fill="#FFCD66"/>
<path d="M30 0C29.0292 0 28.2422 0.787031 28.2422 1.75781V8.90625C28.2422 9.87703 29.0292 10.6641 30 10.6641C30.9708 10.6641 31.7578 9.87703 31.7578 8.90625V1.75781C31.7578 0.787031 30.9708 0 30 0Z" fill="#FFCD66"/>
<path d="M26.2148 14.6208C20.5871 15.9334 16.057 20.3966 14.6737 25.9913C13.286 31.6043 14.8743 37.3258 18.9227 41.2959C20.2909 42.6375 21.2101 45.2093 21.2101 47.6954V51.211C21.2101 54.1188 23.5757 56.4844 26.4835 56.4844H28.2413V58.2422C28.2413 59.213 29.0283 60 29.9991 60C30.9699 60 31.7569 59.213 31.7569 58.2422V56.4844H33.5148C36.4225 56.4844 38.7882 54.1188 38.7882 51.211V47.6954C38.7882 45.2395 39.7566 42.6189 41.198 41.1743C44.1782 38.1878 45.8194 34.2193 45.8194 30C45.8194 19.9111 36.4693 12.2291 26.2148 14.6208ZM35.2726 51.211C35.2726 52.1802 34.484 52.9688 33.5148 52.9688H26.4835C25.5142 52.9688 24.7257 52.1802 24.7257 51.211V49.4532H35.2726V51.211ZM38.7094 38.6911C36.9527 40.4516 35.7474 43.1225 35.386 45.9375H24.6125C24.3065 43.5048 23.3505 40.714 21.3842 38.7858C18.2332 35.6956 17.0003 31.228 18.0866 26.835C19.1558 22.5106 22.6597 19.06 27.0133 18.0446C35.0493 16.17 42.3038 22.1643 42.3038 30C42.3038 33.2816 41.0273 36.3682 38.7094 38.6911Z" fill="#FF9800"/>
</g>
<defs>
<clipPath id="clip0_1474_12470">
<rect width="60" height="60" fill="white"/>
</clipPath>
</defs>
</svg>
