<svg width="20" height="20" viewBox="0 0 20 20" fill="none" xmlns="http://www.w3.org/2000/svg">
<path d="M9.9375 0.625C5.875 0.625 2.40625 3.25 1.125 6.875H18.8125C17.5 3.25 14.0312 0.625 9.9375 0.625Z" fill="#FF9933"/>
<path d="M9.9375 19.375C14.0312 19.375 17.5 16.7812 18.7812 13.125H1.125C2.40625 16.7812 5.875 19.375 9.9375 19.375Z" fill="#138808"/>
<path d="M1.125 6.875C0.78125 7.84375 0.59375 8.90625 0.59375 10C0.59375 11.0938 0.78125 12.1562 1.125 13.125H18.8125C19.1562 12.1562 19.3438 11.0938 19.3438 10C19.3438 8.90625 19.1562 7.84375 18.8125 6.875H1.125Z" fill="white"/>
<path d="M9.9375 12.5C11.3182 12.5 12.4375 11.3807 12.4375 10C12.4375 8.61929 11.3182 7.5 9.9375 7.5C8.55679 7.5 7.4375 8.61929 7.4375 10C7.4375 11.3807 8.55679 12.5 9.9375 12.5Z" fill="#000080"/>
<path d="M9.9375 12.1875C11.1456 12.1875 12.125 11.2081 12.125 10C12.125 8.79188 11.1456 7.8125 9.9375 7.8125C8.72938 7.8125 7.75 8.79188 7.75 10C7.75 11.2081 8.72938 12.1875 9.9375 12.1875Z" fill="white"/>
<path d="M10.9375 8.03157C10.9062 8.12532 10.8125 8.15657 10.7188 8.12532C10.625 8.09407 10.5938 8.00032 10.625 7.90657C10.6563 7.81282 10.75 7.78157 10.8438 7.81282C10.9375 7.87532 10.9688 7.96907 10.9375 8.03157Z" fill="#000080"/>
<path d="M10.375 7.84407C10.375 7.93782 10.2812 8.00032 10.1875 7.96907C10.0937 7.96907 10.0313 7.87532 10.0625 7.78157C10.0625 7.68782 10.1562 7.62532 10.25 7.65657C10.3438 7.68782 10.4063 7.78157 10.375 7.84407Z" fill="#000080"/>
<path d="M9.8125 7.81282C9.8125 7.90657 9.75 7.96907 9.6875 8.00032C9.59375 8.00032 9.53125 7.93782 9.5 7.87532C9.5 7.78157 9.5625 7.71907 9.625 7.68782C9.71875 7.65657 9.8125 7.71907 9.8125 7.81282Z" fill="#000080"/>
<path d="M9.12524 8.12531C9.21154 8.12531 9.28149 8.05536 9.28149 7.96906C9.28149 7.88277 9.21154 7.81281 9.12524 7.81281C9.03895 7.81281 8.96899 7.88277 8.96899 7.96906C8.96899 8.05536 9.03895 8.12531 9.12524 8.12531Z" fill="#000080"/>
<path d="M8.62476 8.40657C8.71105 8.40657 8.78101 8.33661 8.78101 8.25032C8.78101 8.16403 8.71105 8.09407 8.62476 8.09407C8.53846 8.09407 8.46851 8.16403 8.46851 8.25032C8.46851 8.33661 8.53846 8.40657 8.62476 8.40657Z" fill="#000080"/>
<path d="M8.37451 8.65657C8.37451 8.74286 8.30456 8.81282 8.21826 8.81282C8.13197 8.81282 8.06201 8.74286 8.06201 8.65657C8.06201 8.57027 8.13197 8.50032 8.21826 8.50032C8.30456 8.50032 8.37451 8.57027 8.37451 8.65657Z" fill="#000080"/>
<path d="M7.9375 9.31282C8.02379 9.31282 8.09375 9.24286 8.09375 9.15657C8.09375 9.07027 8.02379 9.00032 7.9375 9.00032C7.85121 9.00032 7.78125 9.07027 7.78125 9.15657C7.78125 9.24286 7.85121 9.31282 7.9375 9.31282Z" fill="#000080"/>
<path d="M7.9375 9.71906C7.9375 9.80536 7.86754 9.87531 7.78125 9.87531C7.69496 9.87531 7.625 9.80536 7.625 9.71906C7.625 9.63277 7.69496 9.56281 7.78125 9.56281C7.86754 9.56281 7.9375 9.63277 7.9375 9.71906Z" fill="#000080"/>
<path d="M7.78125 10.4378C7.86754 10.4378 7.9375 10.3679 7.9375 10.2816C7.9375 10.1953 7.86754 10.1253 7.78125 10.1253C7.69496 10.1253 7.625 10.1953 7.625 10.2816C7.625 10.3679 7.69496 10.4378 7.78125 10.4378Z" fill="#000080"/>
<path d="M8.09375 10.8441C8.09375 10.9304 8.02379 11.0003 7.9375 11.0003C7.85121 11.0003 7.78125 10.9304 7.78125 10.8441C7.78125 10.7578 7.85121 10.6878 7.9375 10.6878C8.02379 10.6878 8.09375 10.7578 8.09375 10.8441Z" fill="#000080"/>
<path d="M8.21826 11.5003C8.30456 11.5003 8.37451 11.4304 8.37451 11.3441C8.37451 11.2578 8.30456 11.1878 8.21826 11.1878C8.13197 11.1878 8.06201 11.2578 8.06201 11.3441C8.06201 11.4304 8.13197 11.5003 8.21826 11.5003Z" fill="#000080"/>
<path d="M8.78101 11.7503C8.78101 11.8366 8.71105 11.9066 8.62476 11.9066C8.53846 11.9066 8.46851 11.8366 8.46851 11.7503C8.46851 11.664 8.53846 11.5941 8.62476 11.5941C8.71105 11.5941 8.78101 11.664 8.78101 11.7503Z" fill="#000080"/>
<path d="M9.12524 12.1878C9.21154 12.1878 9.28149 12.1179 9.28149 12.0316C9.28149 11.9453 9.21154 11.8753 9.12524 11.8753C9.03895 11.8753 8.96899 11.9453 8.96899 12.0316C8.96899 12.1179 9.03895 12.1878 9.12524 12.1878Z" fill="#000080"/>
<path d="M9.8125 12.1566C9.8125 12.2429 9.74254 12.3128 9.65625 12.3128C9.56996 12.3128 9.5 12.2429 9.5 12.1566C9.5 12.0703 9.56996 12.0003 9.65625 12.0003C9.74254 12.0003 9.8125 12.0703 9.8125 12.1566Z" fill="#000080"/>
<path d="M10.0933 12.1878C10.0933 12.0941 10.1558 12.0316 10.2183 12.0003C10.312 12.0003 10.3745 12.0628 10.4058 12.1253C10.4058 12.2191 10.3433 12.2816 10.2808 12.3128C10.1558 12.3441 10.0933 12.2816 10.0933 12.1878Z" fill="#000080"/>
<path d="M10.938 12.0316C10.938 12.1179 10.868 12.1878 10.7817 12.1878C10.6954 12.1878 10.6255 12.1179 10.6255 12.0316C10.6255 11.9453 10.6954 11.8753 10.7817 11.8753C10.868 11.8753 10.938 11.9453 10.938 12.0316Z" fill="#000080"/>
<path d="M11.281 11.9066C11.3673 11.9066 11.4373 11.8366 11.4373 11.7503C11.4373 11.664 11.3673 11.5941 11.281 11.5941C11.1947 11.5941 11.1248 11.664 11.1248 11.7503C11.1248 11.8366 11.1947 11.9066 11.281 11.9066Z" fill="#000080"/>
<path d="M11.8438 11.3441C11.8438 11.4304 11.7738 11.5003 11.6875 11.5003C11.6012 11.5003 11.5312 11.4304 11.5312 11.3441C11.5312 11.2578 11.6012 11.1878 11.6875 11.1878C11.7738 11.1878 11.8438 11.2578 11.8438 11.3441Z" fill="#000080"/>
<path d="M11.9683 11.0003C12.0546 11.0003 12.1245 10.9304 12.1245 10.8441C12.1245 10.7578 12.0546 10.6878 11.9683 10.6878C11.882 10.6878 11.812 10.7578 11.812 10.8441C11.812 10.9304 11.882 11.0003 11.9683 11.0003Z" fill="#000080"/>
<path d="M12.2808 10.2816C12.2808 10.3679 12.2108 10.4378 12.1245 10.4378C12.0382 10.4378 11.9683 10.3679 11.9683 10.2816C11.9683 10.1953 12.0382 10.1253 12.1245 10.1253C12.2108 10.1253 12.2808 10.1953 12.2808 10.2816Z" fill="#000080"/>
<path d="M12.1252 9.87531C12.0315 9.87531 11.969 9.81281 11.9377 9.75031C11.9377 9.65656 12.0002 9.59406 12.0627 9.56281C12.1565 9.56281 12.219 9.62531 12.2502 9.68781C12.2815 9.78156 12.219 9.84406 12.1252 9.87531Z" fill="#000080"/>
<path d="M12.1245 9.15657C12.1245 9.24286 12.0546 9.31282 11.9683 9.31282C11.882 9.31282 11.812 9.24286 11.812 9.15657C11.812 9.07027 11.882 9.00032 11.9683 9.00032C12.0546 9.00032 12.1245 9.07027 12.1245 9.15657Z" fill="#000080"/>
<path d="M11.6875 8.81282C11.7738 8.81282 11.8438 8.74286 11.8438 8.65657C11.8438 8.57027 11.7738 8.50032 11.6875 8.50032C11.6012 8.50032 11.5312 8.57027 11.5312 8.65657C11.5312 8.74286 11.6012 8.81282 11.6875 8.81282Z" fill="#000080"/>
<path d="M11.4373 8.25032C11.4373 8.33661 11.3673 8.40657 11.281 8.40657C11.1947 8.40657 11.1248 8.33661 11.1248 8.25032C11.1248 8.16403 11.1947 8.09407 11.281 8.09407C11.3673 8.09407 11.4373 8.16403 11.4373 8.25032Z" fill="#000080"/>
<path d="M10.1399 10.423C10.1308 10.4274 10.1214 10.4315 10.112 10.4353L10.2505 10.7816L10.5005 12.1253L10.0942 10.8441L10.0233 10.4611C10.0123 10.4632 10.0011 10.4649 9.98975 10.4661L10.0317 10.8441L9.93799 12.1878L9.87549 10.8441L9.90335 10.4679C9.89187 10.4671 9.8805 10.4658 9.86926 10.4642L9.81299 10.8441L9.37549 12.1253L9.65674 10.7816L9.77906 10.4418C9.76647 10.4373 9.75413 10.4323 9.74206 10.4267L9.59375 10.7503L8.84375 11.9066L9.46875 10.6878L9.67326 10.3879C9.66264 10.3806 9.65233 10.373 9.64236 10.3649L9.40625 10.6566L8.40625 11.5316L9.3125 10.5316L9.58005 10.3041C9.57235 10.2951 9.56498 10.2858 9.55797 10.2762L9.24976 10.5003L8.06226 11.0941L9.18726 10.3441L9.51083 10.1958C9.50535 10.1838 9.50036 10.1716 9.49588 10.1592L9.15601 10.2816L7.84351 10.5628L9.12476 10.1566L9.47662 10.0889C9.47333 10.0717 9.47097 10.0541 9.46962 10.0363L9.12451 10.0628L7.74951 10.0003L9.12451 9.93782L9.46962 9.96436C9.47097 9.94654 9.47332 9.92899 9.47661 9.91178L9.12451 9.84407L7.84326 9.43782L9.15576 9.71907L9.49585 9.8415C9.50033 9.82907 9.50531 9.81688 9.51078 9.80496L9.18701 9.65656L8.06201 8.90656L9.24951 9.50031L9.55789 9.72459C9.56492 9.71493 9.57231 9.70556 9.58005 9.69649L9.3125 9.46907L8.40625 8.43782L9.40625 9.34407L9.64236 9.63573C9.65233 9.62766 9.66263 9.62 9.67325 9.61276L9.46875 9.31282L8.84375 8.09407L9.59375 9.21907L9.74859 9.57097C9.75857 9.56659 9.76873 9.56254 9.77906 9.55884L9.65674 9.21906L9.37549 7.87531L9.81299 9.15656L9.86926 9.53642C9.8805 9.5348 9.89187 9.53357 9.90335 9.53275L9.87549 9.15656L9.93799 7.81281L10.0317 9.15656L9.98975 9.5345C10.0007 9.53573 10.0116 9.53734 10.0224 9.53932L10.0933 9.15657L10.5308 7.87532L10.2495 9.21907L10.1111 9.56497C10.1233 9.56982 10.1351 9.57516 10.1467 9.58096L10.312 9.25032L11.0308 8.09407L10.437 9.31282L10.2127 9.62119C10.2228 9.62855 10.2326 9.63629 10.2421 9.64441L10.4995 9.34406L11.4995 8.46906L10.5933 9.46906L10.3014 9.70537C10.3064 9.71164 10.3114 9.71805 10.3161 9.72459L10.6245 9.50031L11.8433 8.90656L10.7183 9.65656L10.3662 9.81148C10.3713 9.82306 10.3759 9.83489 10.3801 9.84694L10.7495 9.71907L12.062 9.43782L10.7808 9.84407L10.398 9.91495C10.4 9.92602 10.4017 9.93722 10.4029 9.94855L10.7808 9.90657L12.1245 10.0003L10.7808 10.0628L10.4045 10.0349C10.4032 10.0521 10.4011 10.0691 10.398 10.0857L10.7808 10.1566L12.062 10.5628L10.7495 10.2816L10.3801 10.1537C10.3759 10.1657 10.3713 10.1776 10.3662 10.1891L10.7183 10.3441L11.8433 11.0941L10.6245 10.5003L10.3161 10.276C10.3114 10.2826 10.3064 10.289 10.3014 10.2953L10.5933 10.5316L11.4995 11.5316L10.4995 10.6566L10.2421 10.3562C10.2326 10.3643 10.2228 10.3721 10.2127 10.3794L10.437 10.6878L11.0308 11.9066L10.312 10.7816L10.1399 10.423Z" fill="#000080"/>
</svg>
