<svg width="24" height="24" viewBox="0 0 24 24" fill="none" xmlns="http://www.w3.org/2000/svg">
<path d="M2.09 16.7998H3.75V9.75977H2.09V16.7998ZM2.92 8.83977C3.03986 8.84244 3.15905 8.82113 3.27056 8.77709C3.38207 8.73306 3.48366 8.66719 3.56936 8.58335C3.65507 8.49951 3.72315 8.39939 3.76963 8.28887C3.8161 8.17835 3.84003 8.05966 3.84 7.93977C3.84 7.43977 3.44 7.03977 2.92 7.03977C2.80014 7.03711 2.68095 7.05842 2.56944 7.10245C2.45793 7.14649 2.35634 7.21236 2.27064 7.2962C2.18493 7.38004 2.11684 7.48016 2.07037 7.59067C2.0239 7.70119 1.99997 7.81988 2 7.93977C2 8.43977 2.4 8.83977 2.92 8.83977ZM9.25 7.05977C6.46 7.05977 4.7 8.95977 4.7 11.9998C4.7 15.0598 6.46 16.9598 9.25 16.9598C12.04 16.9598 13.8 15.0598 13.8 11.9998C13.8 8.95977 12.04 7.05977 9.25 7.05977ZM9.25 8.49977C10.96 8.49977 12.05 9.86977 12.05 11.9998C12.05 14.1498 10.96 15.4998 9.25 15.4998C7.54 15.4998 6.46 14.1498 6.46 11.9998C6.46 9.86977 7.54 8.49977 9.25 8.49977ZM14.5 14.1098C14.57 15.8698 16 16.9598 18.22 16.9598C20.54 16.9598 22 15.8198 22 13.9998C22 12.5698 21.18 11.7698 19.23 11.3198L18.13 11.0698C16.95 10.7898 16.47 10.4198 16.47 9.77977C16.47 8.99977 17.2 8.44977 18.28 8.44977C19.38 8.44977 20.13 8.99977 20.21 9.88977H21.84C21.8 8.19977 20.41 7.05977 18.29 7.05977C16.21 7.05977 14.73 8.20977 14.73 9.90977C14.73 11.2798 15.56 12.1298 17.33 12.5298L18.57 12.8198C19.78 13.1098 20.27 13.4998 20.27 14.1998C20.27 14.9998 19.47 15.5698 18.31 15.5698C17.15 15.5698 16.26 14.9998 16.16 14.1098H14.5Z" fill="white"/>
</svg>
