<svg width="36" height="36" viewBox="0 0 36 36" fill="none" xmlns="http://www.w3.org/2000/svg">
<path d="M17.85 16.35C16.0264 18.1836 15.0019 20.664 15 23.25V18H6V24H15V23.25C15 24.525 15.255 25.8 15.75 27H3V18H1.5V15L3 7.5H27L28.335 14.19C26.5681 13.4822 24.632 13.3095 22.7677 13.6936C20.9035 14.0776 19.1933 15.0014 17.85 16.35ZM27 3H3V6H27V3ZM35.085 31.5L33 33.585L28.32 28.98C27.285 29.625 26.055 30 24.75 30C21 30 18 27 18 23.25C18 19.5 21 16.5 24.75 16.5C28.5 16.5 31.5 19.5 31.5 23.25C31.5 24.57 31.125 25.815 30.465 26.85L35.085 31.5ZM28.5 23.25C28.5 22.2554 28.1049 21.3016 27.4016 20.5984C26.6984 19.8951 25.7446 19.5 24.75 19.5C23.7554 19.5 22.8016 19.8951 22.0984 20.5984C21.3951 21.3016 21 22.2554 21 23.25C21 24.2446 21.3951 25.1984 22.0984 25.9016C22.8016 26.6049 23.7554 27 24.75 27C25.7446 27 26.6984 26.6049 27.4016 25.9016C28.1049 25.1984 28.5 24.2446 28.5 23.25Z" fill="#4B5563"/>
</svg>
