<svg width="36" height="36" viewBox="0 0 36 36" fill="none" xmlns="http://www.w3.org/2000/svg">
<path d="M27 19.5001H25.98L22.98 22.5001H25.845L28.5 25.5001H7.5L10.17 22.5001H13.245L10.245 19.5001H9L4.5 24.0001V30.0001C4.5 30.7957 4.81607 31.5588 5.37868 32.1214C5.94129 32.684 6.70435 33.0001 7.5 33.0001H28.5C29.2956 33.0001 30.0587 32.684 30.6213 32.1214C31.1839 31.5588 31.5 30.7957 31.5 30.0001V24.0001L27 19.5001ZM25.5 11.9251L18.075 19.3501L12.75 14.0401L20.19 6.61506L25.5 11.9251ZM19.14 3.43506L9.585 12.9901C9.44594 13.1288 9.33562 13.2937 9.26035 13.4751C9.18508 13.6566 9.14633 13.8511 9.14633 14.0476C9.14633 14.244 9.18508 14.4385 9.26035 14.62C9.33562 14.8015 9.44594 14.9663 9.585 15.1051L17.01 22.5001C17.595 23.1151 18.54 23.1151 19.125 22.5001L28.665 12.9901C28.8041 12.8513 28.9144 12.6865 28.9896 12.505C29.0649 12.3235 29.1037 12.129 29.1037 11.9326C29.1037 11.7361 29.0649 11.5416 28.9896 11.3601C28.9144 11.1787 28.8041 11.0138 28.665 10.8751L21.24 3.45006C21.1047 3.30846 20.9423 3.19549 20.7624 3.11785C20.5826 3.04021 20.389 2.99948 20.1932 2.99808C19.9973 2.99669 19.8032 3.03464 19.6222 3.10971C19.4413 3.18477 19.2773 3.29541 19.14 3.43506V3.43506Z" fill="#4B5563"/>
</svg>
