<svg width="36" height="36" viewBox="0 0 36 36" fill="none" xmlns="http://www.w3.org/2000/svg">
<path d="M7.68 7.5H28.305L26.895 6H8.895L7.68 7.5ZM30.81 7.845C31.245 8.355 31.5 9 31.5 9.75V28.5C31.5 29.2956 31.1839 30.0587 30.6213 30.6213C30.0587 31.1839 29.2956 31.5 28.5 31.5H7.5C6.70435 31.5 5.94129 31.1839 5.37868 30.6213C4.81607 30.0587 4.5 29.2956 4.5 28.5V9.75C4.5 9 4.755 8.355 5.19 7.845L7.26 5.325C7.68 4.815 8.295 4.5 9 4.5H27C27.705 4.5 28.32 4.815 28.725 5.325L30.81 7.845ZM9 27H18V22.5H9V27Z" fill="#4B5563"/>
</svg>
