<svg width="96" height="96" viewBox="0 0 96 96" fill="none" xmlns="http://www.w3.org/2000/svg">
<path d="M84 36V24H28V36H84ZM84 12C86.1217 12 88.1566 12.8429 89.6569 14.3431C91.1571 15.8434 92 17.8783 92 20V60C92 62.1217 91.1571 64.1566 89.6569 65.6569C88.1566 67.1571 86.1217 68 84 68H28C25.8783 68 23.8434 67.1571 22.3431 65.6569C20.8429 64.1566 20 62.1217 20 60V20C20 17.8783 20.8429 15.8434 22.3431 14.3431C23.8434 12.8429 25.8783 12 28 12H84ZM12 76H72V84H12C9.87827 84 7.84344 83.1571 6.34315 81.6569C4.84285 80.1566 4 78.1217 4 76V32H12V76Z" fill="#4B5563"/>
</svg>
