<svg width="217" height="64" viewBox="0 0 217 64" fill="none" xmlns="http://www.w3.org/2000/svg">
<path fill-rule="evenodd" clip-rule="evenodd" d="M208.389 64H8.01802C3.59895 64 0 60.393 0 56V8C0 3.59102 3.59895 0 8.01802 0H208.389C212.804 0 216.407 3.59102 216.407 8V56C216.407 60.393 212.804 64 208.389 64Z" fill="black"/>
<path fill-rule="evenodd" clip-rule="evenodd" d="M208.389 1.2808C212.095 1.2808 215.129 4.30125 215.129 8V56C215.129 59.6988 212.115 62.7192 208.389 62.7192H8.01802C4.31157 62.7192 1.27795 59.6988 1.27795 56V8C1.27795 4.30125 4.29167 1.2808 8.01802 1.2808H208.389ZM208.389 0H8.01802C3.59895 0 0 3.60698 0 8V56C0 60.409 3.59895 64 8.01802 64H208.389C212.804 64 216.407 60.409 216.407 56V8C216.407 3.60698 212.804 0 208.389 0Z" fill="#A6A6A6"/>
<path d="M114.003 21.1711C112.558 21.1711 111.34 20.6644 110.376 19.6668C109.421 18.6973 108.888 17.3606 108.911 15.996C108.911 14.5397 109.405 13.3067 110.376 12.3292C111.336 11.3317 112.554 10.825 113.999 10.825C115.429 10.825 116.647 11.3317 117.626 12.3292C118.598 13.3387 119.091 14.5716 119.091 15.996C119.075 17.4564 118.582 18.6893 117.626 19.6629C116.667 20.6683 115.448 21.1711 114.003 21.1711ZM71.003 21.1711C69.5897 21.1711 68.3635 20.6723 67.3603 19.6868C66.365 18.7053 65.8594 17.4644 65.8594 16C65.8594 14.5357 66.365 13.2948 67.3603 12.3132C68.3436 11.3277 69.5698 10.8289 71.003 10.8289C71.7037 10.8289 72.3845 10.9686 73.0374 11.2519C73.6783 11.5272 74.1999 11.9023 74.586 12.3611L74.6816 12.4768L73.6027 13.5382L73.4912 13.4065C72.8821 12.6803 72.066 12.3252 70.9871 12.3252C70.0236 12.3252 69.1836 12.6683 68.4909 13.3466C67.7942 14.0289 67.4399 14.9227 67.4399 16.004C67.4399 17.0853 67.7942 17.9791 68.4909 18.6614C69.1836 19.3397 70.0236 19.6828 70.9871 19.6828C72.0142 19.6828 72.8781 19.3397 73.5509 18.6614C73.949 18.2624 74.1959 17.7038 74.2835 16.9975H70.8239V15.5053H75.7684L75.7883 15.6409C75.8242 15.8923 75.86 16.1516 75.86 16.391C75.86 17.7676 75.446 18.8808 74.6258 19.7028C73.6943 20.6763 72.476 21.1711 71.003 21.1711ZM128.176 20.9596H126.651L121.981 13.4703L122.021 14.819V20.9556H120.497V11.0404H122.236L122.284 11.1162L126.675 18.1706L126.635 16.8259V11.0404H128.176V20.9596ZM102.546 20.9596H101.001V12.5327H98.3216V11.0404H105.221V12.5327H102.542V20.9596H102.546ZM97.0635 20.9596H95.5228V11.0404H97.0635V20.9596ZM88.4046 20.9596H86.8639V12.5327H84.1846V11.0404H91.0839V12.5327H88.4046V20.9596ZM83.2092 20.9437H77.3012V11.0404H83.2092V12.5327H78.8458V15.2539H82.7832V16.7302H78.8458V19.4514H83.2092V20.9437ZM111.507 18.6414C112.196 19.3317 113.032 19.6788 114.003 19.6788C115.003 19.6788 115.819 19.3397 116.499 18.6414C117.176 17.9631 117.519 17.0733 117.519 16C117.519 14.9267 117.176 14.0329 116.503 13.3586C115.815 12.6683 114.975 12.3212 114.007 12.3212C113.008 12.3212 112.192 12.6604 111.515 13.3586C110.838 14.0369 110.496 14.9267 110.496 16C110.496 17.0733 110.834 17.9671 111.507 18.6414Z" fill="white"/>
<path fill-rule="evenodd" clip-rule="evenodd" d="M108.77 34.8091C105.008 34.8091 101.958 37.6699 101.958 41.616C101.958 45.5262 105.028 48.423 108.77 48.423C112.532 48.423 115.582 45.5422 115.582 41.616C115.582 37.6699 112.532 34.8091 108.77 34.8091ZM108.77 45.7257C106.712 45.7257 104.94 44.018 104.94 41.6001C104.94 39.1462 106.716 37.4744 108.77 37.4744C110.828 37.4744 112.6 39.1462 112.6 41.6001C112.604 44.034 110.828 45.7257 108.77 45.7257ZM93.9083 34.8091C90.1461 34.8091 87.0966 37.6699 87.0966 41.616C87.0966 45.5262 90.166 48.423 93.9083 48.423C97.6705 48.423 100.72 45.5422 100.72 41.616C100.72 37.6699 97.6665 34.8091 93.9083 34.8091ZM93.9083 45.7257C91.8501 45.7257 90.0785 44.018 90.0785 41.6001C90.0785 39.1462 91.854 37.4744 93.9083 37.4744C95.9666 37.4744 97.7382 39.1462 97.7382 41.6001C97.7382 44.034 95.9666 45.7257 93.9083 45.7257ZM76.2241 36.8879V39.7686H83.1234C82.9124 41.3846 82.3789 42.5776 81.5628 43.3956C80.5516 44.409 78.991 45.5103 76.24 45.5103C72.0001 45.5103 68.6838 42.0789 68.6838 37.8295C68.6838 33.5801 72.0001 30.1487 76.24 30.1487C78.5292 30.1487 80.1973 31.0544 81.4354 32.2115L83.4737 30.1687C81.7539 28.5168 79.4647 27.252 76.2559 27.252C70.4395 27.252 65.5586 32.0001 65.5586 37.8135C65.5586 43.643 70.4355 48.3751 76.2559 48.3751C79.397 48.3751 81.7539 47.3457 83.6171 45.4065C85.5161 43.5033 86.1172 40.818 86.1172 38.6514C86.1172 37.9771 86.0655 37.3706 85.958 36.8559H76.2201C76.2241 36.8519 76.2241 36.8879 76.2241 36.8879ZM148.557 39.1302C147.988 37.6021 146.268 34.7931 142.741 34.7931C139.246 34.7931 136.339 37.5502 136.339 41.6001C136.339 45.4225 139.214 48.407 143.079 48.407C146.185 48.407 147.992 46.5038 148.737 45.3866L146.432 43.8385C145.667 44.9756 144.604 45.7218 143.095 45.7218C141.571 45.7218 140.504 45.0275 139.795 43.6589L148.876 39.8884C148.876 39.8923 148.557 39.1302 148.557 39.1302ZM139.297 41.4046C139.226 38.7751 141.336 37.4385 142.845 37.4385C144.035 37.4385 145.026 38.025 145.365 38.8789L139.297 41.4046ZM131.92 48.0001H134.902V28.0021H131.92V48.0001ZM127.023 36.3213H126.916C126.243 35.5193 124.965 34.7931 123.333 34.7931C119.945 34.7931 116.824 37.7816 116.824 41.62C116.824 45.4425 119.929 48.3951 123.333 48.3951C124.945 48.3951 126.243 47.6649 126.916 46.8469H127.023V47.8245C127.023 50.422 125.638 51.8225 123.405 51.8225C121.577 51.8225 120.443 50.5058 119.981 49.4045L117.389 50.4898C118.134 52.2853 120.12 54.5078 123.401 54.5078C126.896 54.5078 129.858 52.4449 129.858 47.4135V35.2001H127.039V36.3213C127.043 36.3213 127.023 36.3213 127.023 36.3213ZM123.6 45.7257C121.541 45.7257 119.822 44.0021 119.822 41.62C119.822 39.218 121.541 37.4784 123.6 37.4784C125.638 37.4784 127.219 39.238 127.219 41.62C127.238 44.0021 125.642 45.7257 123.6 45.7257ZM162.519 28.0021H155.389V48.0001H158.371V40.427H162.523C165.824 40.427 169.068 38.029 169.068 34.2225C169.068 30.416 165.836 28.0021 162.519 28.0021ZM162.607 37.634H158.367V30.7712H162.607C164.84 30.7712 166.102 32.6185 166.102 34.2026C166.102 35.7706 164.824 37.634 162.607 37.634ZM181.02 34.7731C178.854 34.7731 176.621 35.7347 175.697 37.8295L178.34 38.9307C178.91 37.8295 179.953 37.4544 181.056 37.4544C182.6 37.4544 184.161 38.3801 184.197 40.032V40.2435C183.663 39.9402 182.493 39.4774 181.091 39.4774C178.237 39.4774 175.343 41.0415 175.343 43.9741C175.343 46.6594 177.683 48.3831 180.291 48.3831C182.294 48.3831 183.396 47.4774 184.085 46.428H184.193V47.9761H187.067V40.3153C187.067 36.7482 184.424 34.7731 181.02 34.7731ZM180.645 45.7257C179.67 45.7257 178.305 45.2469 178.305 44.018C178.305 42.4699 180.008 41.8834 181.462 41.8834C182.775 41.8834 183.396 42.1667 184.177 42.5577C183.962 44.3532 182.449 45.7098 180.645 45.7257ZM197.553 35.2001L194.13 43.8744H194.022L190.475 35.2001H187.266L192.589 47.3257L189.555 54.0649H192.661L200.85 35.2001H197.553ZM170.713 48.0001H173.694V28.0021H170.713V48.0001Z" fill="white"/>
<path fill-rule="evenodd" clip-rule="evenodd" d="M16.6582 12.0539C16.1964 12.5527 15.9297 13.3147 15.9297 14.3123V49.6918C15.9297 50.6893 16.1964 51.4514 16.6742 51.9302L16.7976 52.0379L36.5759 32.2155V31.7726L16.7817 11.9462L16.6582 12.0539Z" fill="url(#paint0_linear_1488_13604)"/>
<path fill-rule="evenodd" clip-rule="evenodd" d="M43.1553 38.8429L36.5586 32.2314V31.7686L43.1553 25.1571L43.2987 25.2449L51.1017 29.6898C53.3351 30.9506 53.3351 33.0334 51.1017 34.3102L43.2987 38.7551L43.1553 38.8429Z" fill="url(#paint1_linear_1488_13604)"/>
<path fill-rule="evenodd" clip-rule="evenodd" d="M43.298 38.7551L36.558 32L16.6562 51.9461C17.3848 52.7282 18.607 52.816 19.9725 52.0539L43.298 38.7551Z" fill="url(#paint2_linear_1488_13604)"/>
<path fill-rule="evenodd" clip-rule="evenodd" d="M43.298 25.2449L19.9725 11.9661C18.607 11.1841 17.3808 11.2918 16.6562 12.0738L36.558 32L43.298 25.2449Z" fill="url(#paint3_linear_1488_13604)"/>
<path opacity="0.2" fill-rule="evenodd" clip-rule="evenodd" d="M43.1544 38.6115L19.9882 51.8025C18.6943 52.5486 17.5398 52.4967 16.7953 51.8184L16.6719 51.9421L16.7953 52.0499C17.5398 52.7242 18.6943 52.78 19.9882 52.0339L43.3137 38.7551L43.1544 38.6115Z" fill="black"/>
<path opacity="0.12" fill-rule="evenodd" clip-rule="evenodd" d="M51.103 34.0788L43.1367 38.6115L43.28 38.7551L51.0831 34.3102C52.2018 33.6718 52.7512 32.8339 52.7512 32C52.6835 32.7661 52.1142 33.4923 51.103 34.0788Z" fill="black"/>
<path opacity="0.25" fill-rule="evenodd" clip-rule="evenodd" d="M19.9745 12.1975L51.1031 29.9212C52.1143 30.4918 52.6836 31.2379 52.7712 32C52.7712 31.1661 52.2218 30.3282 51.1031 29.6898L19.9745 11.9661C17.7411 10.6853 15.9297 11.7546 15.9297 14.3123V14.5437C15.9297 11.9821 17.7411 10.9327 19.9745 12.1975Z" fill="white"/>
<defs>
<linearGradient id="paint0_linear_1488_13604" x1="34.8018" y1="13.9305" x2="3.11102" y2="22.3558" gradientUnits="userSpaceOnUse">
<stop stop-color="#00A0FF"/>
<stop offset="0.00657" stop-color="#00A1FF"/>
<stop offset="0.2601" stop-color="#00BEFF"/>
<stop offset="0.5122" stop-color="#00D2FF"/>
<stop offset="0.7604" stop-color="#00DFFF"/>
<stop offset="1" stop-color="#00E3FF"/>
</linearGradient>
<linearGradient id="paint1_linear_1488_13604" x1="54.0143" y1="32.0001" x2="15.3855" y2="32.0001" gradientUnits="userSpaceOnUse">
<stop stop-color="#FFE000"/>
<stop offset="0.4087" stop-color="#FFBD00"/>
<stop offset="0.7754" stop-color="#FFA500"/>
<stop offset="1" stop-color="#FF9C00"/>
</linearGradient>
<linearGradient id="paint2_linear_1488_13604" x1="39.633" y1="35.6758" x2="14.1155" y2="78.5283" gradientUnits="userSpaceOnUse">
<stop stop-color="#FF3A44"/>
<stop offset="1" stop-color="#C31162"/>
</linearGradient>
<linearGradient id="paint3_linear_1488_13604" x1="11.6448" y1="0.286088" x2="23.0292" y2="19.4248" gradientUnits="userSpaceOnUse">
<stop stop-color="#32A071"/>
<stop offset="0.0685" stop-color="#2DA771"/>
<stop offset="0.4762" stop-color="#15CF74"/>
<stop offset="0.8009" stop-color="#06E775"/>
<stop offset="1" stop-color="#00F076"/>
</linearGradient>
</defs>
</svg>
