<svg width="36" height="36" viewBox="0 0 36 36" fill="none" xmlns="http://www.w3.org/2000/svg">
<path d="M25.5 10.5H10.5C8.51088 10.5 6.60322 11.2902 5.1967 12.6967C3.79018 14.1032 3 16.0109 3 18C3 19.9891 3.79018 21.8968 5.1967 23.3033C6.60322 24.7098 8.51088 25.5 10.5 25.5H25.5C27.4891 25.5 29.3968 24.7098 30.8033 23.3033C32.2098 21.8968 33 19.9891 33 18C33 16.0109 32.2098 14.1032 30.8033 12.6967C29.3968 11.2902 27.4891 10.5 25.5 10.5ZM25.5 22.5C24.3065 22.5 23.1619 22.0259 22.318 21.182C21.4741 20.3381 21 19.1935 21 18C21 16.8065 21.4741 15.6619 22.318 14.818C23.1619 13.9741 24.3065 13.5 25.5 13.5C26.6935 13.5 27.8381 13.9741 28.682 14.818C29.5259 15.6619 30 16.8065 30 18C30 19.1935 29.5259 20.3381 28.682 21.182C27.8381 22.0259 26.6935 22.5 25.5 22.5Z" fill="#4B5563"/>
</svg>
