<svg width="40" height="40" viewBox="0 0 40 40" fill="none" xmlns="http://www.w3.org/2000/svg">
<path d="M21.6667 15.8333H30V12.5H21.6667V15.8333ZM21.6667 27.5H30V24.1667H21.6667V27.5ZM31.6667 35H8.33333C7.44928 35 6.60143 34.6488 5.97631 34.0237C5.35119 33.3986 5 32.5507 5 31.6667V8.33333C5 7.44928 5.35119 6.60143 5.97631 5.97631C6.60143 5.35119 7.44928 5 8.33333 5H31.6667C32.5507 5 33.3986 5.35119 34.0237 5.97631C34.6488 6.60143 35 7.44928 35 8.33333V31.6667C35 32.5507 34.6488 33.3986 34.0237 34.0237C33.3986 34.6488 32.5507 35 31.6667 35ZM10 18.3333H18.3333V10H10V18.3333ZM11.6667 11.6667H16.6667V16.6667H11.6667V11.6667ZM10 30H18.3333V21.6667H10V30ZM11.6667 23.3333H16.6667V28.3333H11.6667V23.3333Z" fill="#111827"/>
</svg>
