<svg width="36" height="36" viewBox="0 0 36 36" fill="none" xmlns="http://www.w3.org/2000/svg">
<path d="M33 27.45V32.7C33 33.6 32.1 34.5 31.05 34.5H22.8C21.9 34.5 21 33.6 21 32.55V27.3C21 26.4 21.9 25.5 22.8 25.5V21.75C22.8 19.65 24.9 18 27 18C29.1 18 31.2 19.65 31.2 21.75V22.5H29.25V21.75C29.25 20.55 28.2 19.8 27 19.8C25.8 19.8 24.75 20.55 24.75 21.75V25.5H31.2C32.1 25.5 33 26.4 33 27.45ZM9 3C7.35 3 6 4.35 6 6V30C6 31.65 7.35 33 9 33H18V27.3C18 25.8 18.6 24.75 19.5 24C19.65 23.85 19.8 23.85 19.8 23.7V21.75C19.8 17.7 23.4 15 27 15C28.05 15 29.1 15.3 30 15.6V12L21 3H9ZM19.5 5.25L27.75 13.5H19.5V5.25Z" fill="#4B5563"/>
</svg>
