<svg width="36" height="36" viewBox="0 0 36 36" fill="none" xmlns="http://www.w3.org/2000/svg">
<path d="M35.25 25.5L27.75 33L22.5 27.75L24.75 25.5L27.75 28.5L33 23.25L35.25 25.5ZM9 3C7.335 3 6 4.335 6 6V30C6 31.665 7.335 33 9 33H20.715C19.92 31.635 19.5 30.075 19.5 28.5C19.5 28.005 19.545 27.495 19.62 27H9V24H20.715C21.405 22.8 22.365 21.75 23.52 21H9V18H27V19.62C27.495 19.545 28.005 19.5 28.5 19.5C29.01 19.5 29.505 19.545 30 19.62V12L21 3H9ZM19.5 5.25L27.75 13.5H19.5V5.25Z" fill="#4B5563"/>
</svg>
