<svg width="36" height="36" viewBox="0 0 36 36" fill="none" xmlns="http://www.w3.org/2000/svg">
<path d="M23.25 3C27 3 30 6 30 9.75C30 11.07 29.625 12.315 28.965 13.35L33.585 18L31.5 20.085L26.82 15.48C25.785 16.125 24.555 16.5 23.25 16.5C19.5 16.5 16.5 13.5 16.5 9.75C16.5 6 19.5 3 23.25 3ZM23.25 6C22.2554 6 21.3016 6.39509 20.5984 7.09835C19.8951 7.80161 19.5 8.75544 19.5 9.75C19.5 10.7446 19.8951 11.6984 20.5984 12.4017C21.3016 13.1049 22.2554 13.5 23.25 13.5C24.2446 13.5 25.1984 13.1049 25.9016 12.4017C26.6049 11.6984 27 10.7446 27 9.75C27 8.75544 26.6049 7.80161 25.9016 7.09835C25.1984 6.39509 24.2446 6 23.25 6ZM11.25 21.75L6 28.5H27L20.25 19.5L15 26.25L11.25 21.75ZM30 30C30 30.7956 29.6839 31.5587 29.1213 32.1213C28.5587 32.6839 27.7956 33 27 33H6C5.20435 33 4.44129 32.6839 3.87868 32.1213C3.31607 31.5587 3 30.7956 3 30V9C3 8.20435 3.31607 7.44129 3.87868 6.87868C4.44129 6.31607 5.20435 6 6 6H14.25C13.77 7.155 13.5 8.415 13.5 9.75C13.5 12.3359 14.5272 14.8158 16.3557 16.6443C18.1842 18.4728 20.6641 19.5 23.25 19.5C24.27 19.5 25.26 19.335 26.19 19.05L30 22.86V30Z" fill="#4B5563"/>
</svg>
