<svg width="40" height="40" viewBox="0 0 40 40" fill="none" xmlns="http://www.w3.org/2000/svg">
<path d="M8.4328 5.00001C7.71613 5.00001 7.0328 5.23335 6.39946 5.70001C5.76613 6.16668 5.39946 6.76668 5.2328 7.50001L3.51613 14.85C3.09946 16.6667 3.4328 18.2 4.4828 19.55C4.6828 19.75 4.8828 19.95 5.06613 20.1167C6.04946 21.0667 7.1328 21.6667 8.69946 21.6667C10.2661 21.6667 11.5161 20.9833 12.4495 20.0834C13.4995 21.1167 14.7661 21.6667 16.3328 21.6667C17.7328 21.6667 19.0661 21.05 19.9995 20.1167C21.1328 21.1667 22.4161 21.6667 23.8328 21.6667C25.2828 21.6667 26.5161 21.1167 27.5661 20.0834C28.5161 21.0333 29.7661 21.6667 31.3495 21.6667C32.9328 21.6667 34.0495 21.0834 34.9995 20.1C35.1495 19.95 35.2995 19.7833 35.4661 19.6167C36.5661 18.25 36.8995 16.6667 36.4828 14.85L34.7661 7.50001C34.5495 6.76668 34.1661 6.16668 33.5495 5.70001C32.9888 5.24514 32.2881 4.99787 31.5661 5.00001H8.4328ZM31.4828 8.28335L33.2828 15.6333C33.4328 16.35 33.2828 17 32.8161 17.5833C32.3995 18.1 31.8828 18.3333 31.2495 18.3333C30.7328 18.3333 30.2828 18.1667 29.9161 17.7667C29.5495 17.3833 29.3495 16.9333 29.2995 16.4L28.2828 8.33335L31.4828 8.28335ZM8.4328 8.33335H11.7161L10.6995 16.4C10.4995 17.7167 9.84946 18.3333 8.74946 18.3333C8.06613 18.3333 7.54946 18.1 7.1828 17.5833C6.71613 17 6.56613 16.35 6.71613 15.6333L8.4328 8.33335ZM15.0828 8.33335H18.3328V16.1667C18.3328 16.75 18.1495 17.25 17.7328 17.7C17.3161 18.1333 16.7995 18.3333 16.1661 18.3333C15.5995 18.3333 15.1161 18.1333 14.7328 17.65C14.3495 17.1667 14.1661 16.6667 14.1661 16.1V15.8333L15.0828 8.33335ZM21.6661 8.33335H24.9161L25.8328 15.8333C25.9661 16.5333 25.8328 17.1167 25.3495 17.6167C24.9161 18.1167 24.3495 18.3333 23.6661 18.3333C23.1495 18.3333 22.6828 18.1333 22.2661 17.7C22.0703 17.4964 21.9165 17.2562 21.8135 16.9931C21.7106 16.73 21.6605 16.4492 21.6661 16.1667V8.33335ZM4.99946 23.3833V31.6667C4.99946 33.5167 6.4828 35 8.3328 35H31.6661C32.5502 35 33.398 34.6488 34.0232 34.0237C34.6483 33.3986 34.9995 32.5507 34.9995 31.6667V23.4167C34.0828 24.3834 32.9161 24.9333 31.6661 25C29.9995 25.05 28.7495 24.5667 27.5661 23.4167C26.5661 24.4167 25.2328 25 23.8328 25C22.3328 25 20.9995 24.4 19.9995 23.45C19.0495 24.4 17.7495 25 16.2995 25C14.7828 25 13.4495 24.4167 12.4495 23.4167C11.4828 24.4 10.1661 25 8.71613 25C7.21613 25 6.09946 24.4167 4.99946 23.3833Z" fill="#111827"/>
</svg>
