<svg width="40" height="40" viewBox="0 0 40 40" fill="none" xmlns="http://www.w3.org/2000/svg">
<path d="M20.0007 5C29.1673 5 36.6673 10.9667 36.6673 18.3333C36.6673 25.7 29.1673 31.6667 20.0007 31.6667C17.934 31.6667 15.9507 31.3667 14.1173 30.8333C9.25065 35 3.33398 35 3.33398 35C7.21732 31.1167 7.83398 28.5 7.91732 27.5C5.08398 25.1167 3.33398 21.8833 3.33398 18.3333C3.33398 10.9667 10.834 5 20.0007 5ZM28.334 20V16.6667H25.0007V20H28.334ZM21.6673 20V16.6667H18.334V20H21.6673ZM15.0007 20V16.6667H11.6673V20H15.0007Z" fill="#111827"/>
</svg>
