<svg width="36" height="36" viewBox="0 0 36 36" fill="none" xmlns="http://www.w3.org/2000/svg">
<path d="M8.25 10.5C7.65326 10.5 7.08097 10.2629 6.65901 9.84099C6.23705 9.41903 6 8.84674 6 8.25C6 7.65326 6.23705 7.08097 6.65901 6.65901C7.08097 6.23705 7.65326 6 8.25 6C8.84674 6 9.41903 6.23705 9.84099 6.65901C10.2629 7.08097 10.5 7.65326 10.5 8.25C10.5 8.84674 10.2629 9.41903 9.84099 9.84099C9.41903 10.2629 8.84674 10.5 8.25 10.5ZM32.115 17.37L18.615 3.87C18.075 3.33 17.325 3 16.5 3H6C4.335 3 3 4.335 3 6V16.5C3 17.325 3.33 18.075 3.885 18.615L17.37 32.115C17.925 32.655 18.675 33 19.5 33C20.325 33 21.075 32.655 21.615 32.115L32.115 21.615C32.67 21.075 33 20.325 33 19.5C33 18.66 32.655 17.91 32.115 17.37Z" fill="#4B5563"/>
</svg>
