<svg width="36" height="36" viewBox="0 0 36 36" fill="none" xmlns="http://www.w3.org/2000/svg">
<path d="M25.875 18C25.2783 18 24.706 17.7629 24.284 17.341C23.8621 16.919 23.625 16.3467 23.625 15.75C23.625 15.1533 23.8621 14.581 24.284 14.159C24.706 13.7371 25.2783 13.5 25.875 13.5C26.4717 13.5 27.044 13.7371 27.466 14.159C27.8879 14.581 28.125 15.1533 28.125 15.75C28.125 16.3467 27.8879 16.919 27.466 17.341C27.044 17.7629 26.4717 18 25.875 18ZM21.375 12C20.7783 12 20.206 11.7629 19.784 11.341C19.3621 10.919 19.125 10.3467 19.125 9.75C19.125 9.15326 19.3621 8.58097 19.784 8.15901C20.206 7.73705 20.7783 7.5 21.375 7.5C21.9717 7.5 22.544 7.73705 22.966 8.15901C23.3879 8.58097 23.625 9.15326 23.625 9.75C23.625 10.3467 23.3879 10.919 22.966 11.341C22.544 11.7629 21.9717 12 21.375 12ZM13.875 12C13.2783 12 12.706 11.7629 12.284 11.341C11.8621 10.919 11.625 10.3467 11.625 9.75C11.625 9.15326 11.8621 8.58097 12.284 8.15901C12.706 7.73705 13.2783 7.5 13.875 7.5C14.4717 7.5 15.044 7.73705 15.466 8.15901C15.8879 8.58097 16.125 9.15326 16.125 9.75C16.125 10.3467 15.8879 10.919 15.466 11.341C15.044 11.7629 14.4717 12 13.875 12ZM9.375 18C8.77826 18 8.20597 17.7629 7.78401 17.341C7.36205 16.919 7.125 16.3467 7.125 15.75C7.125 15.1533 7.36205 14.581 7.78401 14.159C8.20597 13.7371 8.77826 13.5 9.375 13.5C9.97174 13.5 10.544 13.7371 10.966 14.159C11.3879 14.581 11.625 15.1533 11.625 15.75C11.625 16.3467 11.3879 16.919 10.966 17.341C10.544 17.7629 9.97174 18 9.375 18ZM17.625 4.5C14.0446 4.5 10.6108 5.92232 8.07906 8.45406C5.54732 10.9858 4.125 14.4196 4.125 18C4.125 21.5804 5.54732 25.0142 8.07906 27.5459C10.6108 30.0777 14.0446 31.5 17.625 31.5C18.2217 31.5 18.794 31.2629 19.216 30.841C19.6379 30.419 19.875 29.8467 19.875 29.25C19.875 28.665 19.65 28.14 19.29 27.75C18.945 27.345 18.72 26.82 18.72 26.25C18.72 25.6533 18.9571 25.081 19.379 24.659C19.801 24.2371 20.3733 24 20.97 24H23.625C25.6141 24 27.5218 23.2098 28.9283 21.8033C30.3348 20.3968 31.125 18.4891 31.125 16.5C31.125 9.87 25.08 4.5 17.625 4.5Z" fill="#4B5563"/>
</svg>
