<svg width="36" height="36" viewBox="0 0 36 36" fill="none" xmlns="http://www.w3.org/2000/svg">
<path d="M19.5 12.75H16.5V9.75H19.5V12.75ZM19.5 19.5H16.5V16.5H19.5V19.5ZM19.5 26.25H16.5V23.25H19.5V26.25ZM33 15V9C33 8.20435 32.6839 7.44129 32.1213 6.87868C31.5587 6.31607 30.7956 6 30 6H6C5.20435 6 4.44129 6.31607 3.87868 6.87868C3.31607 7.44129 3 8.20435 3 9V15C3.79565 15 4.55871 15.3161 5.12132 15.8787C5.68393 16.4413 6 17.2044 6 18C6 18.7956 5.68393 19.5587 5.12132 20.1213C4.55871 20.6839 3.79565 21 3 21V27C3 27.7956 3.31607 28.5587 3.87868 29.1213C4.44129 29.6839 5.20435 30 6 30H30C30.7956 30 31.5587 29.6839 32.1213 29.1213C32.6839 28.5587 33 27.7956 33 27V21C32.2044 21 31.4413 20.6839 30.8787 20.1213C30.3161 19.5587 30 18.7956 30 18C30 17.2044 30.3161 16.4413 30.8787 15.8787C31.4413 15.3161 32.2044 15 33 15Z" fill="#4B5563"/>
</svg>
