<svg width="36" height="36" viewBox="0 0 36 36" fill="none" xmlns="http://www.w3.org/2000/svg">
<path d="M27 27.75C26.4033 27.75 25.831 27.5129 25.409 27.091C24.9871 26.669 24.75 26.0967 24.75 25.5C24.75 24.9033 24.9871 24.331 25.409 23.909C25.831 23.4871 26.4033 23.25 27 23.25C27.5967 23.25 28.169 23.4871 28.591 23.909C29.0129 24.331 29.25 24.9033 29.25 25.5C29.25 26.0967 29.0129 26.669 28.591 27.091C28.169 27.5129 27.5967 27.75 27 27.75ZM29.25 14.25L32.19 18H25.5V14.25H29.25ZM9 27.75C8.40326 27.75 7.83097 27.5129 7.40901 27.091C6.98705 26.669 6.75 26.0967 6.75 25.5C6.75 24.9033 6.98705 24.331 7.40901 23.909C7.83097 23.4871 8.40326 23.25 9 23.25C9.59674 23.25 10.169 23.4871 10.591 23.909C11.0129 24.331 11.25 24.9033 11.25 25.5C11.25 26.0967 11.0129 26.669 10.591 27.091C10.169 27.5129 9.59674 27.75 9 27.75ZM30 12H25.5V6H4.5C2.835 6 1.5 7.335 1.5 9V25.5H4.5C4.5 26.6935 4.97411 27.8381 5.81802 28.682C6.66193 29.5259 7.80653 30 9 30C10.1935 30 11.3381 29.5259 12.182 28.682C13.0259 27.8381 13.5 26.6935 13.5 25.5H22.5C22.5 26.6935 22.9741 27.8381 23.818 28.682C24.6619 29.5259 25.8065 30 27 30C28.1935 30 29.3381 29.5259 30.182 28.682C31.0259 27.8381 31.5 26.6935 31.5 25.5H34.5V18L30 12Z" fill="#4B5563"/>
</svg>
