<svg width="255" height="84" viewBox="0 0 255 84" fill="none" xmlns="http://www.w3.org/2000/svg">
<rect width="32" height="32" fill="#73CF11"/>
<path d="M19.0715 13.1721H29L20.969 18.8372L16.0048 22.3349L7.96425 28L11.0405 18.8372L3 13.1628L12.9285 13.1721L16.0048 4L19.0715 13.1721Z" fill="white"/>
<path d="M16.0048 22.3349L24.0358 28L20.969 18.8372L21.659 20.9116L16.0048 22.3349Z" fill="white"/>
<rect x="35" width="32" height="32" fill="#73CF11"/>
<path d="M54.0715 13.1721H64L55.969 18.8372L51.0048 22.3349L42.9642 28L46.0405 18.8372L38 13.1628L47.9285 13.1721L51.0048 4L54.0715 13.1721Z" fill="white"/>
<path d="M51.0048 22.3349L59.0358 28L55.969 18.8372L56.659 20.9116L51.0048 22.3349Z" fill="white"/>
<rect x="70" width="32" height="32" fill="#73CF11"/>
<path d="M89.0715 13.1721H99L90.969 18.8372L86.0048 22.3349L77.9642 28L81.0405 18.8372L73 13.1628L82.9285 13.1721L86.0048 4L89.0715 13.1721Z" fill="white"/>
<path d="M86.0048 22.3349L94.0358 28L90.969 18.8372L91.659 20.9116L86.0048 22.3349Z" fill="white"/>
<rect x="105" width="32" height="32" fill="#73CF11"/>
<path d="M124.072 13.1721H134L125.969 18.8372L121.005 22.3349L112.964 28L116.041 18.8372L108 13.1628L117.928 13.1721L121.005 4L124.072 13.1721Z" fill="white"/>
<path d="M121.005 22.3349L129.036 28L125.969 18.8372L126.659 20.9116L121.005 22.3349Z" fill="white"/>
<rect x="140" width="32" height="32" fill="#DCDCE6"/>
<path d="M159.072 13.1721H169L160.969 18.8372L156.005 22.3349L147.964 28L151.041 18.8372L143 13.1628L152.928 13.1721L156.005 4L159.072 13.1721Z" fill="white"/>
<path d="M156.005 22.3349L164.036 28L160.969 18.8372L161.659 20.9116L156.005 22.3349Z" fill="white"/>
<path d="M1.43821 62V48.9091H6.1044C7.11861 48.9091 7.96023 49.0838 8.62926 49.4332C9.30256 49.7827 9.8054 50.2663 10.1378 50.8842C10.4702 51.4979 10.6364 52.2074 10.6364 53.0128C10.6364 53.8139 10.468 54.5192 10.1314 55.1286C9.79901 55.7337 9.29616 56.2045 8.62287 56.5412C7.95384 56.8778 7.11222 57.0462 6.09801 57.0462H2.56321V55.3459H5.91903C6.55824 55.3459 7.07813 55.2543 7.47869 55.071C7.88352 54.8878 8.17969 54.6214 8.36719 54.272C8.55469 53.9226 8.64844 53.5028 8.64844 53.0128C8.64844 52.5185 8.55256 52.0902 8.3608 51.728C8.1733 51.3658 7.87713 51.0888 7.4723 50.897C7.07173 50.701 6.54545 50.603 5.89347 50.603H3.41335V62H1.43821ZM7.90057 56.0938L11.1349 62H8.88494L5.71449 56.0938H7.90057ZM15.7436 62.2173C15.1214 62.2173 14.5589 62.1023 14.0561 61.8722C13.5533 61.6378 13.1548 61.299 12.8608 60.8558C12.571 60.4126 12.4261 59.8693 12.4261 59.2259C12.4261 58.6719 12.5327 58.2159 12.7457 57.858C12.9588 57.5 13.2464 57.2166 13.6087 57.0078C13.9709 56.799 14.3757 56.6413 14.8232 56.5348C15.2706 56.4283 15.7266 56.3473 16.1911 56.2919C16.7791 56.2237 17.2564 56.1683 17.6229 56.1257C17.9893 56.0788 18.2557 56.0043 18.4219 55.902C18.5881 55.7997 18.6712 55.6335 18.6712 55.4034V55.3587C18.6712 54.8004 18.5135 54.3679 18.1982 54.0611C17.8871 53.7543 17.4226 53.6009 16.8047 53.6009C16.1612 53.6009 15.6541 53.7436 15.2834 54.0291C14.9169 54.3104 14.6634 54.6236 14.5227 54.9688L12.7266 54.5597C12.9396 53.9631 13.2507 53.4815 13.6598 53.1151C14.0732 52.7443 14.5483 52.4759 15.0852 52.3097C15.6222 52.1392 16.1868 52.054 16.7791 52.054C17.1712 52.054 17.5866 52.1009 18.0256 52.1946C18.4688 52.2841 18.8821 52.4503 19.2656 52.6932C19.6534 52.9361 19.9709 53.2834 20.218 53.7351C20.4652 54.1825 20.5888 54.7642 20.5888 55.4801V62H18.7223V60.6577H18.6456C18.522 60.9048 18.3366 61.1477 18.0895 61.3864C17.8423 61.625 17.5249 61.8232 17.1371 61.9808C16.7493 62.1385 16.2848 62.2173 15.7436 62.2173ZM16.1591 60.6832C16.6875 60.6832 17.1392 60.5788 17.5142 60.37C17.8935 60.1612 18.1811 59.8885 18.3771 59.5518C18.5774 59.2109 18.6776 58.8466 18.6776 58.4588V57.1932C18.6094 57.2614 18.4773 57.3253 18.2812 57.3849C18.0895 57.4403 17.87 57.4893 17.6229 57.532C17.3757 57.5703 17.1349 57.6065 16.9006 57.6406C16.6662 57.6705 16.4702 57.696 16.3125 57.7173C15.9418 57.7642 15.603 57.843 15.2962 57.9538C14.9936 58.0646 14.7507 58.2244 14.5675 58.4332C14.3885 58.6378 14.299 58.9105 14.299 59.2514C14.299 59.7244 14.4737 60.0824 14.8232 60.3253C15.1726 60.5639 15.6179 60.6832 16.1591 60.6832ZM27.7175 52.1818V53.7159H22.3546V52.1818H27.7175ZM23.7928 49.8295H25.704V59.1172C25.704 59.4879 25.7594 59.767 25.8702 59.9545C25.981 60.1378 26.1238 60.2635 26.2985 60.3317C26.4775 60.3956 26.6713 60.4276 26.8801 60.4276C27.0336 60.4276 27.1678 60.4169 27.2828 60.3956C27.3979 60.3743 27.4874 60.3572 27.5513 60.3445L27.8965 61.9233C27.7857 61.9659 27.628 62.0085 27.4235 62.0511C27.2189 62.098 26.9632 62.1236 26.6564 62.1278C26.1536 62.1364 25.6848 62.0469 25.2502 61.8594C24.8155 61.6719 24.464 61.3821 24.1955 60.9901C23.927 60.598 23.7928 60.1058 23.7928 59.5135V49.8295ZM29.8317 62V52.1818H31.7429V62H29.8317ZM30.7969 50.6669C30.4645 50.6669 30.179 50.5561 29.9403 50.3345C29.706 50.1087 29.5888 49.8402 29.5888 49.5291C29.5888 49.2138 29.706 48.9453 29.9403 48.7237C30.179 48.4979 30.4645 48.3849 30.7969 48.3849C31.1293 48.3849 31.4126 48.4979 31.647 48.7237C31.8857 48.9453 32.005 49.2138 32.005 49.5291C32.005 49.8402 31.8857 50.1087 31.647 50.3345C31.4126 50.5561 31.1293 50.6669 30.7969 50.6669ZM36.2253 56.1705V62H34.3141V52.1818H36.1486V53.7798H36.2701C36.4959 53.2599 36.8496 52.8423 37.3311 52.527C37.8169 52.2116 38.4284 52.054 39.1657 52.054C39.8347 52.054 40.4206 52.1946 40.9235 52.4759C41.4263 52.7528 41.8162 53.1662 42.0932 53.7159C42.3702 54.2656 42.5087 54.9453 42.5087 55.755V62H40.5975V55.9851C40.5975 55.2734 40.4121 54.7173 40.0414 54.3168C39.6706 53.9119 39.1614 53.7095 38.5137 53.7095C38.0705 53.7095 37.6763 53.8054 37.3311 53.9972C36.9902 54.1889 36.7196 54.4702 36.5194 54.8409C36.3233 55.2074 36.2253 55.6506 36.2253 56.1705ZM49.1884 65.8864C48.4086 65.8864 47.7374 65.7841 47.1749 65.5795C46.6167 65.375 46.1607 65.1044 45.807 64.7678C45.4533 64.4311 45.1891 64.0625 45.0144 63.6619L46.6571 62.9844C46.7722 63.1719 46.9256 63.37 47.1174 63.5788C47.3134 63.7919 47.5776 63.973 47.91 64.1222C48.2466 64.2713 48.6792 64.3459 49.2076 64.3459C49.932 64.3459 50.5307 64.169 51.0037 63.8153C51.4767 63.4659 51.7132 62.9077 51.7132 62.1406V60.2102H51.5918C51.4767 60.419 51.3105 60.6513 51.0932 60.907C50.8801 61.1626 50.5861 61.3842 50.2111 61.5717C49.8361 61.7592 49.3482 61.853 48.7473 61.853C47.9718 61.853 47.2729 61.6719 46.6507 61.3097C46.0328 60.9432 45.5428 60.4041 45.1806 59.6925C44.8226 58.9766 44.6436 58.0966 44.6436 57.0526C44.6436 56.0085 44.8205 55.1136 45.1742 54.3679C45.5321 53.6222 46.0222 53.0511 46.6444 52.6548C47.2665 52.2543 47.9718 52.054 48.7601 52.054C49.3695 52.054 49.8617 52.1562 50.2367 52.3608C50.6117 52.5611 50.9036 52.7955 51.1124 53.0639C51.3255 53.3324 51.4895 53.5689 51.6046 53.7734H51.7452V52.1818H53.6181V62.2173C53.6181 63.0611 53.4221 63.7536 53.03 64.2947C52.638 64.8359 52.1074 65.2365 51.4384 65.4964C50.7736 65.7564 50.0236 65.8864 49.1884 65.8864ZM49.1692 60.2678C49.7189 60.2678 50.1834 60.1399 50.5627 59.8842C50.9462 59.6243 51.236 59.2536 51.432 58.772C51.6323 58.2862 51.7324 57.7045 51.7324 57.027C51.7324 56.3665 51.6344 55.7848 51.4384 55.282C51.2424 54.7791 50.9547 54.3871 50.5755 54.1058C50.1962 53.8203 49.7275 53.6776 49.1692 53.6776C48.5939 53.6776 48.1145 53.8267 47.731 54.125C47.3475 54.419 47.0577 54.8196 46.8617 55.3267C46.6699 55.8338 46.574 56.4006 46.574 57.027C46.574 57.6705 46.6721 58.2351 46.8681 58.7209C47.0641 59.2067 47.3539 59.5859 47.7374 59.8587C48.1252 60.1314 48.6025 60.2678 49.1692 60.2678ZM65.0806 62.1982C64.1602 62.1982 63.3569 61.9872 62.6708 61.5653C61.9847 61.1435 61.4521 60.5533 61.0728 59.7947C60.6935 59.0362 60.5039 58.1499 60.5039 57.1357C60.5039 56.1172 60.6935 55.2266 61.0728 54.4638C61.4521 53.701 61.9847 53.1087 62.6708 52.6868C63.3569 52.2649 64.1602 52.054 65.0806 52.054C66.0011 52.054 66.8043 52.2649 67.4904 52.6868C68.1765 53.1087 68.7092 53.701 69.0884 54.4638C69.4677 55.2266 69.6573 56.1172 69.6573 57.1357C69.6573 58.1499 69.4677 59.0362 69.0884 59.7947C68.7092 60.5533 68.1765 61.1435 67.4904 61.5653C66.8043 61.9872 66.0011 62.1982 65.0806 62.1982ZM65.087 60.5938C65.6836 60.5938 66.1779 60.4361 66.57 60.1207C66.962 59.8054 67.2518 59.3857 67.4393 58.8615C67.631 58.3374 67.7269 57.7599 67.7269 57.1293C67.7269 56.5028 67.631 55.9276 67.4393 55.4034C67.2518 54.875 66.962 54.451 66.57 54.1314C66.1779 53.8118 65.6836 53.652 65.087 53.652C64.4862 53.652 63.9876 53.8118 63.5913 54.1314C63.1992 54.451 62.9073 54.875 62.7156 55.4034C62.5281 55.9276 62.4343 56.5028 62.4343 57.1293C62.4343 57.7599 62.5281 58.3374 62.7156 58.8615C62.9073 59.3857 63.1992 59.8054 63.5913 60.1207C63.9876 60.4361 64.4862 60.5938 65.087 60.5938ZM73.7019 56.1705V62H71.7907V52.1818H73.6252V53.7798H73.7466C73.9725 53.2599 74.3262 52.8423 74.8077 52.527C75.2935 52.2116 75.905 52.054 76.6422 52.054C77.3113 52.054 77.8972 52.1946 78.4 52.4759C78.9029 52.7528 79.2928 53.1662 79.5698 53.7159C79.8468 54.2656 79.9853 54.9453 79.9853 55.755V62H78.074V55.9851C78.074 55.2734 77.8887 54.7173 77.5179 54.3168C77.1472 53.9119 76.638 53.7095 75.9902 53.7095C75.5471 53.7095 75.1529 53.8054 74.8077 53.9972C74.4668 54.1889 74.1962 54.4702 73.9959 54.8409C73.7999 55.2074 73.7019 55.6506 73.7019 56.1705Z" fill="#9CA3AF"/>
<g clip-path="url(#clip0_1361_11290)">
<path d="M136.311 58.0152H152.613V61.057H146.203V78.1567H142.678V61.057H136.297V58.0152H136.311ZM151.916 63.5729H154.93V66.3873H154.986C155.086 65.9894 155.271 65.6056 155.541 65.236C155.811 64.8664 156.138 64.5111 156.521 64.2126C156.905 63.8999 157.331 63.6582 157.8 63.4592C158.269 63.2744 158.753 63.1749 159.236 63.1749C159.605 63.1749 159.876 63.1892 160.018 63.2034C160.16 63.2176 160.302 63.246 160.458 63.2602V66.3589C160.231 66.3163 160.003 66.2879 159.762 66.2594C159.52 66.231 159.293 66.2168 159.065 66.2168C158.525 66.2168 158.014 66.3305 157.53 66.5437C157.047 66.7569 156.635 67.0838 156.28 67.4961C155.924 67.9225 155.64 68.4342 155.427 69.0596C155.214 69.685 155.114 70.3957 155.114 71.206V78.1425H151.902V63.5729H151.916ZM175.225 78.1567H172.07V76.1241H172.013C171.615 76.8632 171.032 77.446 170.251 77.8866C169.469 78.3273 168.673 78.5547 167.863 78.5547C165.944 78.5547 164.551 78.0856 163.699 77.1333C162.846 76.1809 162.42 74.7453 162.42 72.8264V63.5729H165.632V72.5137C165.632 73.7929 165.873 74.7026 166.371 75.2286C166.854 75.7545 167.55 76.0246 168.431 76.0246C169.114 76.0246 169.668 75.9251 170.123 75.7119C170.578 75.4986 170.947 75.2286 171.217 74.8732C171.501 74.5321 171.7 74.1056 171.828 73.6224C171.956 73.1391 172.013 72.6132 172.013 72.0446V63.5872H175.225V78.1567ZM180.697 73.4802C180.796 74.4184 181.152 75.0722 181.763 75.456C182.388 75.8256 183.127 76.0246 183.994 76.0246C184.293 76.0246 184.634 75.9961 185.018 75.9535C185.401 75.9109 185.771 75.8113 186.098 75.6834C186.439 75.5555 186.709 75.3565 186.936 75.1006C187.149 74.8448 187.249 74.5179 187.235 74.1056C187.22 73.6934 187.064 73.3523 186.78 73.0964C186.496 72.8264 186.14 72.6274 185.7 72.4568C185.259 72.3004 184.762 72.1583 184.193 72.0446C183.625 71.9309 183.056 71.803 182.473 71.675C181.877 71.5471 181.294 71.3765 180.74 71.1917C180.185 71.007 179.688 70.7511 179.247 70.4242C178.807 70.1115 178.451 69.6993 178.196 69.2018C177.925 68.7043 177.798 68.0931 177.798 67.3539C177.798 66.5579 177.997 65.9041 178.38 65.3639C178.764 64.8238 179.261 64.3974 179.844 64.0704C180.441 63.7435 181.095 63.5161 181.82 63.3739C182.545 63.246 183.241 63.1749 183.895 63.1749C184.648 63.1749 185.373 63.2602 186.055 63.4166C186.737 63.5729 187.363 63.8288 187.917 64.1984C188.471 64.5537 188.926 65.0228 189.296 65.5914C189.665 66.1599 189.892 66.8564 189.992 67.6666H186.638C186.481 66.8991 186.14 66.3731 185.586 66.1173C185.032 65.8472 184.392 65.7193 183.682 65.7193C183.454 65.7193 183.184 65.7335 182.871 65.7761C182.559 65.8188 182.274 65.8899 181.99 65.9894C181.72 66.0889 181.493 66.2452 181.294 66.4442C181.109 66.6432 181.01 66.8991 181.01 67.226C181.01 67.624 181.152 67.9367 181.422 68.1783C181.692 68.42 182.047 68.619 182.488 68.7895C182.928 68.9459 183.426 69.088 183.994 69.2018C184.563 69.3155 185.145 69.4434 185.742 69.5713C186.325 69.6993 186.894 69.8698 187.462 70.0546C188.031 70.2394 188.528 70.4952 188.969 70.8222C189.409 71.1491 189.765 71.5471 190.035 72.0304C190.305 72.5137 190.447 73.1249 190.447 73.8356C190.447 74.7026 190.248 75.4276 189.85 76.0388C189.452 76.6358 188.94 77.1333 188.315 77.5028C187.689 77.8724 186.979 78.1567 186.211 78.3273C185.444 78.4978 184.676 78.5831 183.923 78.5831C182.999 78.5831 182.147 78.4836 181.365 78.2704C180.583 78.0572 179.901 77.7445 179.333 77.3323C178.764 76.9058 178.309 76.3799 177.982 75.7545C177.655 75.1291 177.485 74.3757 177.456 73.5087H180.697V73.4802ZM191.299 63.5729H193.73V59.195H196.942V63.5729H199.841V65.9751H196.942V73.7645C196.942 74.1056 196.956 74.3899 196.984 74.6458C197.013 74.8874 197.084 75.1006 197.183 75.2712C197.283 75.4418 197.439 75.5697 197.652 75.655C197.866 75.7403 198.136 75.7829 198.505 75.7829C198.733 75.7829 198.96 75.7829 199.187 75.7687C199.415 75.7545 199.642 75.7261 199.87 75.6692V78.1567C199.514 78.1993 199.159 78.2278 198.832 78.2704C198.491 78.313 198.15 78.3273 197.795 78.3273C196.942 78.3273 196.26 78.242 195.748 78.0856C195.236 77.9293 194.824 77.6876 194.54 77.3749C194.241 77.0622 194.057 76.6784 193.943 76.2093C193.844 75.7403 193.772 75.2001 193.758 74.6031V66.0036H191.328V63.5729H191.299ZM202.115 63.5729H205.157V65.5487H205.214C205.668 64.6959 206.294 64.0989 207.104 63.7293C207.914 63.3597 208.781 63.1749 209.733 63.1749C210.884 63.1749 211.879 63.3739 212.732 63.7862C213.585 64.1842 214.295 64.7385 214.864 65.4492C215.432 66.1599 215.845 66.9843 216.129 67.9225C216.413 68.8606 216.555 69.8698 216.555 70.9359C216.555 71.9167 216.427 72.869 216.171 73.7787C215.916 74.7026 215.532 75.5129 215.02 76.2236C214.509 76.9343 213.855 77.4886 213.059 77.915C212.263 78.3415 211.339 78.5547 210.259 78.5547C209.79 78.5547 209.321 78.512 208.852 78.4268C208.383 78.3415 207.928 78.1993 207.502 78.0145C207.075 77.8298 206.663 77.5881 206.308 77.2896C205.938 76.9911 205.64 76.65 205.384 76.2662H205.327V83.5439H202.115V63.5729ZM213.343 70.879C213.343 70.2252 213.258 69.5855 213.087 68.9601C212.917 68.3347 212.661 67.7946 212.32 67.3113C211.979 66.828 211.552 66.4442 211.055 66.1599C210.543 65.8756 209.961 65.7193 209.307 65.7193C207.957 65.7193 206.933 66.1884 206.251 67.1265C205.569 68.0646 205.228 69.3155 205.228 70.879C205.228 71.6182 205.313 72.3004 205.498 72.9259C205.683 73.5513 205.938 74.0914 206.308 74.5463C206.663 75.0011 207.09 75.3565 207.587 75.6124C208.085 75.8824 208.667 76.0103 209.321 76.0103C210.06 76.0103 210.671 75.854 211.183 75.5555C211.695 75.257 212.107 74.859 212.434 74.3899C212.76 73.9067 213.002 73.3665 213.144 72.7553C213.272 72.1441 213.343 71.5187 213.343 70.879ZM219.014 58.0152H222.226V61.057H219.014V58.0152ZM219.014 63.5729H222.226V78.1567H219.014V63.5729ZM225.097 58.0152H228.309V78.1567H225.097V58.0152ZM238.158 78.5547C236.993 78.5547 235.955 78.3557 235.046 77.9719C234.136 77.5881 233.369 77.048 232.729 76.3799C232.104 75.6976 231.621 74.8874 231.294 73.9493C230.967 73.0112 230.796 71.9735 230.796 70.8506C230.796 69.7419 230.967 68.7185 231.294 67.7803C231.621 66.8422 232.104 66.032 232.729 65.3497C233.354 64.6674 234.136 64.1415 235.046 63.7577C235.955 63.3739 236.993 63.1749 238.158 63.1749C239.324 63.1749 240.361 63.3739 241.271 63.7577C242.18 64.1415 242.948 64.6816 243.587 65.3497C244.213 66.032 244.696 66.8422 245.023 67.7803C245.35 68.7185 245.52 69.7419 245.52 70.8506C245.52 71.9735 245.35 73.0112 245.023 73.9493C244.696 74.8874 244.213 75.6976 243.587 76.3799C242.962 77.0622 242.18 77.5881 241.271 77.9719C240.361 78.3557 239.324 78.5547 238.158 78.5547ZM238.158 76.0103C238.869 76.0103 239.494 75.854 240.02 75.5555C240.546 75.257 240.972 74.859 241.313 74.3757C241.655 73.8924 241.896 73.3381 242.067 72.7269C242.223 72.1157 242.308 71.4902 242.308 70.8506C242.308 70.2252 242.223 69.614 242.067 68.9885C241.91 68.3631 241.655 67.823 241.313 67.3397C240.972 66.8564 240.546 66.4726 240.02 66.1741C239.494 65.8756 238.869 65.7193 238.158 65.7193C237.448 65.7193 236.822 65.8756 236.296 66.1741C235.771 66.4726 235.344 66.8706 235.003 67.3397C234.662 67.823 234.42 68.3631 234.25 68.9885C234.093 69.614 234.008 70.2252 234.008 70.8506C234.008 71.4902 234.093 72.1157 234.25 72.7269C234.406 73.3381 234.662 73.8924 235.003 74.3757C235.344 74.859 235.771 75.257 236.296 75.5555C236.822 75.8682 237.448 76.0103 238.158 76.0103ZM246.458 63.5729H248.889V59.195H252.101V63.5729H255V65.9751H252.101V73.7645C252.101 74.1056 252.115 74.3899 252.143 74.6458C252.172 74.8874 252.243 75.1006 252.342 75.2712C252.442 75.4418 252.598 75.5697 252.811 75.655C253.025 75.7403 253.295 75.7829 253.664 75.7829C253.892 75.7829 254.119 75.7829 254.346 75.7687C254.574 75.7545 254.801 75.7261 255.029 75.6692V78.1567C254.673 78.1993 254.318 78.2278 253.991 78.2704C253.65 78.313 253.309 78.3273 252.954 78.3273C252.101 78.3273 251.419 78.242 250.907 78.0856C250.395 77.9293 249.983 77.6876 249.699 77.3749C249.4 77.0622 249.216 76.6784 249.102 76.2093C249.002 75.7403 248.931 75.2001 248.917 74.6031V66.0036H246.487V63.5729H246.458Z" fill="black"/>
<path d="M132.559 58.0152H117.834L113.286 44L108.724 58.0152L94 58.001L105.924 66.6716L101.362 80.6726L113.286 72.0162L125.197 80.6726L120.649 66.6716L132.559 58.0152Z" fill="#00B67A"/>
<path d="M121.672 69.8414L120.648 66.6716L113.286 72.0162L121.672 69.8414Z" fill="#005128"/>
</g>
<defs>
<clipPath id="clip0_1361_11290">
<rect width="161" height="39.5439" fill="white" transform="translate(94 44)"/>
</clipPath>
</defs>
</svg>
