<svg width="36" height="36" viewBox="0 0 36 36" fill="none" xmlns="http://www.w3.org/2000/svg">
<path d="M6 10.5H3V31.5C3 33.15 4.35 34.5 6 34.5H27V31.5H6V10.5ZM30 4.5H25.2C24.6 2.7 22.95 1.5 21 1.5C19.05 1.5 17.4 2.7 16.8 4.5H12C10.35 4.5 9 5.85 9 7.5V25.5C9 27.15 10.35 28.5 12 28.5H30C31.65 28.5 33 27.15 33 25.5V7.5C33 5.85 31.65 4.5 30 4.5ZM21 4.5C21.9 4.5 22.5 5.25 22.5 6C22.5 6.75 21.75 7.5 21 7.5C20.25 7.5 19.5 6.75 19.5 6C19.5 5.25 20.1 4.5 21 4.5ZM18.45 22.65L13.5 17.7L15.6 15.6L18.45 18.45L26.4 10.5L28.5 12.6" fill="#4B5563"/>
</svg>
