<svg width="200" height="55" viewBox="0 0 200 55" fill="none" xmlns="http://www.w3.org/2000/svg">
<g clip-path="url(#clip0_1488_13492)">
<path d="M118.922 32.7695C115.897 32.7695 113.445 30.3243 113.445 27.3079C113.445 24.2916 115.897 21.8464 118.922 21.8464C121.946 21.8464 124.398 24.2916 124.398 27.3079C124.398 30.3243 121.946 32.7695 118.922 32.7695ZM118.922 10.9232C109.848 10.9232 102.492 18.2589 102.492 27.3079C102.492 36.357 109.848 43.6927 118.922 43.6927C127.995 43.6927 135.351 36.357 135.351 27.3079C135.351 18.2589 127.995 10.9232 118.922 10.9232Z" fill="#263238"/>
<path d="M138.637 10.9232H149.59V43.6927H138.637V10.9232Z" fill="#263238"/>
<path d="M105.778 10.9232L92.1626 33.1966L85.7475 43.6927L79.3313 33.1966L65.7168 10.9232H78.5569L85.7475 22.694L92.937 10.9232H105.778Z" fill="#263238"/>
<path d="M199.974 10.9232H167.115V21.8464H180.461L173.788 32.7695L167.115 43.6927H199.974V32.7695H186.62L199.974 10.9232Z" fill="#263238"/>
<path d="M152.877 25.1233H163.83V43.6927H152.877V25.1233Z" fill="#263238"/>
<path d="M163.83 16.3847C163.83 19.4011 161.378 21.8463 158.354 21.8463C155.329 21.8463 152.877 19.4011 152.877 16.3847C152.877 13.3684 155.329 10.9232 158.354 10.9232C161.378 10.9232 163.83 13.3684 163.83 16.3847Z" fill="#00C853"/>
<path d="M-0.000843048 0H54.7637V54.6158H-0.000843048V0Z" fill="#00C853"/>
<path d="M31.7634 17.4771L23.594 30.8411L19.745 37.1387L15.8952 30.8411L7.72656 17.4771H15.4306L19.745 24.5395L24.0587 17.4771H31.7634Z" fill="white"/>
<path d="M44.9066 17.4771H25.1914V24.0309H33.1987L29.1952 30.5848L25.1914 37.1387H44.9066V30.5848H36.8944L44.9066 17.4771Z" fill="white"/>
<path d="M31.7651 17.4772L27.7575 24.0321L29.6317 24.0309L31.8246 17.4772L31.7651 17.4772Z" fill="#B9F6CA"/>
</g>
<defs>
<clipPath id="clip0_1488_13492">
<rect width="200" height="54.6512" fill="white"/>
</clipPath>
</defs>
</svg>
