<svg width="60" height="60" viewBox="0 0 60 60" fill="none" xmlns="http://www.w3.org/2000/svg">
<path d="M26.4743 33.525C27.4993 34.5 27.4993 36.1 26.4743 37.075C25.4993 38.05 23.8993 38.05 22.9243 37.075C20.5828 34.73 19.2676 31.5515 19.2676 28.2375C19.2676 24.9236 20.5828 21.7451 22.9243 19.4L31.7743 10.55C34.1194 8.20849 37.2979 6.89331 40.6118 6.89331C43.9258 6.89331 47.1042 8.20849 49.4493 10.55C51.7909 12.8951 53.106 16.0736 53.106 19.3875C53.106 22.7015 51.7909 25.88 49.4493 28.225L45.7243 31.95C45.7493 29.9 45.4243 27.85 44.7243 25.9L45.8993 24.7C46.6002 24.0068 47.1565 23.1814 47.5363 22.2716C47.916 21.3619 48.1115 20.3859 48.1115 19.4C48.1115 18.4142 47.916 17.4382 47.5363 16.5285C47.1565 15.6187 46.6002 14.7933 45.8993 14.1C45.206 13.3992 44.3806 12.8428 43.4709 12.4631C42.5611 12.0834 41.5851 11.8878 40.5993 11.8878C39.6135 11.8878 38.6375 12.0834 37.7277 12.4631C36.818 12.8428 35.9926 13.3992 35.2993 14.1L26.4743 22.925C25.7735 23.6183 25.2171 24.4437 24.8374 25.3535C24.4576 26.2632 24.2621 27.2392 24.2621 28.225C24.2621 29.2109 24.4576 30.1869 24.8374 31.0966C25.2171 32.0064 25.7735 32.8318 26.4743 33.525ZM33.5243 22.925C34.4993 21.95 36.0993 21.95 37.0743 22.925C39.4159 25.2701 40.731 28.4486 40.731 31.7625C40.731 35.0765 39.4159 38.255 37.0743 40.6L28.2243 49.45C25.8792 51.7916 22.7008 53.1068 19.3868 53.1068C16.0729 53.1068 12.8944 51.7916 10.5493 49.45C8.20775 47.105 6.89258 43.9265 6.89258 40.6125C6.89258 37.2986 8.20775 34.1201 10.5493 31.775L14.2743 28.05C14.2493 30.1 14.5743 32.15 15.2743 34.125L14.0993 35.3C13.3985 35.9933 12.8421 36.8187 12.4624 37.7285C12.0826 38.6382 11.8871 39.6142 11.8871 40.6C11.8871 41.5858 12.0826 42.5619 12.4624 43.4716C12.8421 44.3814 13.3985 45.2068 14.0993 45.9C14.7926 46.6009 15.618 47.1573 16.5277 47.537C17.4375 47.9167 18.4135 48.1122 19.3993 48.1122C20.3851 48.1122 21.3611 47.9167 22.2709 47.537C23.1806 47.1573 24.006 46.6009 24.6993 45.9L33.5243 37.075C34.2251 36.3818 34.7815 35.5564 35.1613 34.6466C35.541 33.7369 35.7365 32.7609 35.7365 31.775C35.7365 30.7892 35.541 29.8132 35.1613 28.9035C34.7815 27.9937 34.2251 27.1683 33.5243 26.475C33.2815 26.2475 33.088 25.9726 32.9556 25.6673C32.8233 25.362 32.7551 25.0328 32.7551 24.7C32.7551 24.3673 32.8233 24.0381 32.9556 23.7328C33.088 23.4275 33.2815 23.1526 33.5243 22.925Z" fill="#FF9800"/>
</svg>
